<?xml version="1.0" encoding="utf-8"?>
<!-- Generator: Adobe Illustrator 19.0.0, SVG Export Plug-In . SVG Version: 6.00 Build 0)  -->
<svg version="1.1" id="Capa_1" xmlns="http://www.w3.org/2000/svg" xmlns:xlink="http://www.w3.org/1999/xlink" x="0px" y="0px"
	 viewBox="0 0 159 161" style="enable-background:new 0 0 159 161;" xml:space="preserve">
<style type="text/css">
	.st0{fill:#008A98;}
</style>
<g>
	<path class="st0" d="M110.8,142.6c-8.6,4.7-17.4,8.6-27.3,9.8c-12.2,1.5-23.9-0.1-35.2-5c-0.7-0.3-1.4-0.5-2.1-0.7
		c-20.1-10.6-32.9-26.7-36.9-49.3C3.6,64.2,24.1,31.7,56.6,22.5c1.4-0.4,2.8-0.8,4.5-1.2c-0.4-1.2-0.7-2.1-1-3
		C59,14.2,60.4,10,63.8,7.7c3.6-2.4,8.1-2.4,11.5,0.5c3.8,3.2,7.4,6.7,10.3,10.8c1,1.4,2.1,2.3,3.9,2.6c4.6,0.9,8.9,2.4,13.1,4.4
		c1.6,0.8,2.9,0.8,4.4-0.3c2.1-1.6,4.3-2.9,6.5-4.4c5.3-3.5,9.9-3.9,13.9-1.1c3.9,2.7,5.1,6.8,3.7,13.4c6.6,2.9,9.2,7.9,7,15.2
		c6.6,3.1,9.3,8,7,15.3c3,1.3,5.6,3,6.9,6.1c2.4,5.2,0.8,10.7-5,14c-4.4,2.5-6.6,5.7-6.3,10.7c0,0.1,0,0.3,0,0.4
		c-0.6,1.9,0.2,5.4-3.1,4.9c-3.1-0.5-1.5-3.3-1.4-5.3c0-0.8,0-1.7,0-2.8c-3.4,1.4-6,3.6-8.8,5.4c-4.8,3.1-9.6,6.3-14.4,9.5
		c-3.5,2.4-7.4,3.7-11.6,3.2c-3.9-0.5-7.1,0.8-10.1,3.5c2.2,5-0.2,8-4.4,10.7c-9.5,6-18.7,12.4-28.1,18.6c-0.8,0.5-1.6,1.2-2.7,2
		c2.3,1.2,4.4,1.6,6.6,1.8c8.8,2.3,17.6,2,26.4-0.4c20.2-4.8,34.2-17,42.8-35.8c0.8-1.9,0.9-5.8,4.3-4.2c3.1,1.5,0.6,4.2-0.2,6.2
		C130.7,125.3,121.9,134.9,110.8,142.6z M88.8,109.7c4.3-3.8,9.4-4.7,15-4c1.7,0.2,3.3-0.4,4.6-1.3c12.5-8.2,25-16.5,37.5-24.8
		c2.8-1.9,3.3-5.4,1.6-8c-1.7-2.8-5.1-3.6-8.2-1.9c-1.3,0.7-2.5,1.6-3.8,2.4c-1.4,1-3,1.8-4.2-0.1c-1.1-1.7,0.2-2.8,1.5-3.7
		c1.9-1.3,3.8-2.4,5.6-3.7c3.1-2.3,3.8-5.6,1.9-8.5c-1.9-2.8-5.3-3.4-8.6-1.4c-1.2,0.7-2.3,1.5-3.4,2.3c-1.3,0.9-2.8,1.5-4-0.1
		c-1.1-1.6,0-2.8,1.3-3.7c1.8-1.2,3.6-2.3,5.3-3.5c3.3-2.4,4.2-5.8,2.4-8.7c-1.9-3-5.3-3.5-8.9-1.4c-1.4,0.8-2.7,1.8-4.1,2.6
		c-1.3,0.8-2.4,0.5-3.2-0.8c-0.8-1.2-0.3-2.2,0.7-2.9c1.7-1.3,3.5-2.4,5.3-3.6c4.2-2.8,5.3-6.2,3.1-9.4c-2.1-3-5.6-3.3-9.6-0.7
		c-6.9,4.5-13.7,9.1-20.6,13.6c-4.4,2.9-5.2,2.8-6.8-2.2c-3-9.2-8.1-16.8-15.2-23.2c-2.3-2.1-4.7-3.7-7.6-1.5
		c-3.1,2.3-2.3,5.1-0.5,7.9c4.5,7.5,5.7,15.6,3.8,24.2C67.8,52,66,60.3,63.9,68.5c-0.6,2.4-0.2,4.3,1.2,6.3
		c6.5,9.6,12.8,19.3,19.3,29C85.7,105.7,86.7,107.9,88.8,109.7z M36,81.7c-6.8,4.5-13.9,9.2-21,13.8c-1.4,0.9-1.1,2.1-0.8,3.3
		c4.4,19.6,15.5,34,33.4,43.2c1.1,0.6,2.2,1.3,3.5,0.5c6-4,12-7.9,18.3-12c-1-1.5-1.7-2.7-2.4-3.8c-7-10.5-14-20.9-21.1-31.4
		c-0.6-0.9-1.3-1.9-1.7-2.9c-0.4-1-0.1-2,0.9-2.6c1-0.7,1.9-0.5,2.7,0.3c0.7,0.8,1.4,1.8,2,2.7c7.1,10.6,14.2,21.2,21.3,31.7
		c0.7,1.1,1.1,2.5,2.8,3c4-2.7,8-5.4,12.1-8c1.6-1,1.9-2.1,0.8-3.7C76.9,100.9,67,86,57.2,71.1c-0.8-1.1-1.7-2.1-3-1.3
		c-4.6,2.9-9.1,5.9-13.2,8.6c0.2,3,4.5,5,1.2,7.2C38.8,87.8,38.7,82.7,36,81.7z M63.9,25.8c-36.3,6.1-54.2,41.6-50.1,65
		c1.4-0.9,2.8-1.8,4.1-2.6c10.5-7,21.1-13.8,31.5-20.9c3.3-2.2,6.4-3.4,10.6-0.7C61.4,52.7,69.3,40.1,63.9,25.8z M93.5,34.6
		c2.3-1.5,4.2-2.8,6.6-4.4c-3.4-1.7-6.2-2.9-9.7-3.2C91.6,29.8,92.5,32,93.5,34.6z"/>
</g>
</svg>
