<?xml version="1.0" encoding="utf-8"?>
<!-- Generator: Adobe Illustrator 19.0.0, SVG Export Plug-In . SVG Version: 6.00 Build 0)  -->
<svg version="1.1" id="Capa_1" xmlns="http://www.w3.org/2000/svg" xmlns:xlink="http://www.w3.org/1999/xlink" x="0px" y="0px"
	 viewBox="0 0 102 158" style="enable-background:new 0 0 102 158;" xml:space="preserve">
<style type="text/css">
	.st0{fill:#008C9A;}
</style>
<g>
	<path class="st0" d="M73.2,67.9c0,6.8-1.9,12.4-6.2,17.5c-2.8,3.3-0.5,9.2,3.7,10.7c5.7,2.1,11.5,4.1,17.3,6.2
		c7.1,2.6,10.4,7.1,10.5,14.7c0,6.6,0,13.2-0.2,19.9c-0.3,7.8-4.6,11.9-12.3,11.9c-2.4,0-4.2,0.3-5.7,2.5c-1.7,2.3-4.7,2.9-7.4,2.7
		c-13.3-0.9-26.7-0.3-40.1-0.4c-3.7,0-7.3,0-9.5-3.8c-0.9-1.4-2.5-0.8-3.8-0.9c-8.8-0.2-12.9-4.4-12.8-13.3c0.1-6.4-0.1-12.7,0-19.1
		c0-6.9,3.3-11.5,9.8-13.9c5.9-2.1,11.8-4.2,17.6-6.3c5.2-1.9,6.7-7.5,3.2-11.7c-3.2-3.9-5.2-8.2-5.3-13.3c0-1.2,0.3-2.8-1.5-2.9
		c-3.1-0.2-3.1-2.3-3.1-4.5c0-4.6-0.1-9.2,0-13.9c0.2-8.1,5.8-13.6,13.8-13.7c5.7-0.1,11.5-0.4,17.2,0.1c4.7,0.4,9.5,1.9,13.8,3.9
		c3.9,1.9,5.4,5.7,5.5,10c0.1,4.4-0.1,8.7,0.1,13.1C77.8,66.5,77.4,68.8,73.2,67.9z M21.9,144c0.8-1.6,0.7-3.1,0.7-4.6
		c0-5.7-0.1-11.5,0-17.2c0.1-5.1,2.6-7.5,7.7-7.6c2.1-0.1,4.2,0,6.4,0c12.5,0,25,0,37.5,0c5,0,7.8,2.2,8,6.5c0.2,3.6,0,7.2,0,10.9
		c0,1.4-0.5,2.6-2,2.7c-1.8,0.1-2.3-1.2-2.3-2.8c-0.1-2.9-0.2-5.7,0-8.6c0.2-3.1-1-4.6-4.3-4.5c-14.1,0.1-28.2,0.1-42.4,0
		c-2.9,0-4.4,1.1-4.3,4.2c0.1,7.4,0.1,14.7,0,22.1c0,2.6,1,4.1,3.7,4.1c14.6,0.1,29.2,0.1,43.8,0.1c2.5,0,3.6-1.3,3.5-3.8
		c0-0.9,0-1.7,0-2.6c0.1-1.3,0.4-2.6,2-2.6c1.3-0.1,2,0.8,2.2,2.1c0.1,0.7,0,1.5,0.8,2c8.8,0.8,11.4-1.6,11.2-10.4
		c0-3.2-0.1-6.5,0-9.7c0.1-15,0-14.8-13.9-20.2c-5.3-2-9.9-3.6-14.3,1.6c-1.6,1.8-4.3,2.5-6.7,3.1c-3.5,0.9-7.1,1.4-10.8,0.6
		c-1.4-0.3-2.8-0.7-2.5-2.6c0.2-1.6,1.6-1.7,2.9-1.6c1.7,0.1,3.5,0.2,5.2,0.1c4.8-0.3,8.9-2.1,12.7-5.8c-3.7-2.3-5.1-5.8-5.1-10.3
		c-6.3,2.9-12.2,2.3-18.2,0.4c-0.3,4.3-1.9,7.6-5.1,9.8c0.8,1.8,3.7,2.9,1.7,4.9c-2.1,2-3.6-0.4-4.9-1.6c-1.3-1.2-2.5-1.3-4.1-0.8
		c-4.6,1.7-9.2,3.2-13.7,5c-4.2,1.6-6.3,4.7-6.3,9.2c0,6.4-0.1,12.7-0.1,19.1C10.9,142.9,13.7,145.2,21.9,144z M31.7,63.4
		c10.7-2.2,19.9-5.9,27.8-12.4c0.7-0.6,1.4-1.5,1.8-2.3c1.8-3.9,0.4-7.9-2.7-8c-6.2-0.1-12.5-0.1-18.7,0.1c-3.8,0.1-7,2.8-7.8,6.5
		C30.9,52.4,31.6,57.6,31.7,63.4z M59.5,56.6c-5.7,3.8-11.8,6.9-18.3,9c-5.6,1.8-5.7,2-4.8,7.8c0.1,0.9,0.4,1.7,0.6,2.5
		c2.5,7.4,9.7,11.7,17.6,10.8c6.7-0.8,13.8-7.3,13.9-15.2c0-2.5,1.2-5.3-1-7.5C65.1,61.5,62.3,59.1,59.5,56.6z M72.8,61.8
		c1.1-11.9,1.1-18.4-6.3-18.5c-0.6,3.3-0.4,6.9-2.7,9.8c-0.4,0.5,0.1,1.2,0.5,1.7C66.7,57.5,69.1,60.2,72.8,61.8z"/>
	<path class="st0" d="M54.5,17.9c0,2.7,0,5.5,0,8.2c0,1.4-0.4,2.5-2,2.6c-1.6,0.1-2.2-1.1-2.2-2.4c-0.1-5.7-0.1-11.4,0-17.2
		c0-1.3,0.5-2.6,2.1-2.7c1.8-0.1,2.2,1.3,2.2,2.8C54.6,12.1,54.5,15,54.5,17.9z"/>
	<path class="st0" d="M39.1,31.1c-2.1,0.1-2.7-1.2-3.4-2.2c-1.9-3.1-3.7-6.2-5.5-9.3c-0.7-1.3-1.2-2.6,0.3-3.6
		c1.6-1,2.6,0.1,3.3,1.3c2.1,3.4,4.1,6.8,6.1,10.3C41.1,29.3,40.7,30.6,39.1,31.1z"/>
	<path class="st0" d="M75.2,18.2c-0.5,0.9-1.1,2.1-1.8,3.3c-1.7,2.8-3.3,5.5-5,8.3c-0.7,1.2-1.8,1.7-3.1,1c-1.2-0.7-1.2-1.9-0.6-2.9
		c2.2-3.8,4.4-7.5,6.7-11.2c0.5-0.9,1.5-1.3,2.6-0.9C74.8,16.2,75.2,16.9,75.2,18.2z"/>
	<path class="st0" d="M27.1,38.1c-2.2,0.1-6.6-2.9-6.6-4.3c0.1-1.3,0.8-2,2.1-2c2,0,6.4,2.9,6.4,4.3C29,37.4,28.2,38,27.1,38.1z"/>
	<path class="st0" d="M77.8,38.1c-1.3-0.1-2.1-0.8-2-2.1c0-1.3,4.7-4.3,6.6-4.1c1.3,0.1,2.1,0.8,2,2.1
		C84.3,35.2,79.6,38.2,77.8,38.1z"/>
	<path class="st0" d="M52.4,126.2c4.3,0,7.8,3.5,7.8,7.8c0,4.3-3.6,7.9-7.8,7.9c-4.3,0-7.7-3.5-7.7-7.9
		C44.7,129.6,48,126.2,52.4,126.2z M52.3,130.5c-2.3,0.2-3.6,1.5-3.5,3.6c0.1,2.3,1.5,3.6,3.9,3.5c2.2-0.2,3.4-1.6,3.3-3.7
		C55.9,131.7,54.4,130.6,52.3,130.5z"/>
	<path class="st0" d="M51.7,82c-1.1,0-2.2,0-3.4,0c-5.3,0-6.4-1.3-5.2-6.5c1.1-4.7,5.8-7.8,10.4-6.9c4.7,0.9,8.2,5.9,7.4,10.6
		c-0.3,1.7-1.1,2.8-2.9,2.7C55.9,82,53.8,82,51.7,82C51.7,82,51.7,82,51.7,82z M47.4,77.4c3.2,0.2,6,0.5,8.9-0.2
		c-0.1-2.9-1.7-4.1-4.2-4.2C49.5,72.9,47.9,74.2,47.4,77.4z"/>
</g>
</svg>
