<?xml version="1.0" encoding="utf-8"?>
<!-- Generator: Adobe Illustrator 19.0.0, SVG Export Plug-In . SVG Version: 6.00 Build 0)  -->
<svg version="1.1" id="Capa_1" xmlns="http://www.w3.org/2000/svg" xmlns:xlink="http://www.w3.org/1999/xlink" x="0px" y="0px"
	 viewBox="0 0 153 150" style="enable-background:new 0 0 153 150;" xml:space="preserve">
<style type="text/css">
	.st0{fill:#018C9A;}
</style>
<g>
	<path class="st0" d="M141.5,59.7c0.5,6-1.1,11.4-4.2,16.5c-3.3,4-7.6,6.7-12.7,9.4c4.5,2.7,9.2,5.1,7.5,11.4
		c-2.2,0.3-3.8,0-4.2-2.5c-0.5-2.6-2.3-3.5-4.9-3.5c-7.8,0.2-15.3,5.6-17.8,13.1c-2.7,8.3-5.5,16.5-8.4,25.3c4,0.9,7.5,0.7,11.1,0.4
		c1.9-0.2,1.5-2,1.6-3.3c0.1-7.1,0-14.2,0.1-21.4c0-4.6,0.4-5,4.9-5c5.5,0,11,0,16.5,0c1.4,0,3.3-0.1,3.5,1.5
		c0.4,2.9,2.1,3.1,4.4,3.2c3,0.2,4.9,2,5.1,5c0.2,3.4,0.2,6.8,0,10.1c-0.2,3.4-2.3,5.1-5.6,5.4c-1.7,0.1-3.7-0.1-3.5,2.7
		c0.3,2.5,2.2,1.9,3.7,2c5.4,0.2,5.4,0.3,5.5,5.5c0,9.4,0.2,8.2-8,8.2c-41.5,0-83,0-124.5,0c-5.4,0-5.6-0.2-5.7-5.7
		c0-0.9,0-1.7,0-2.6c0.1-5,0.1-5.1,5.2-5.5c0.9-0.1,1.8,0.1,2.8-1.1c-1.6-6.1-3.3-12.5-5-19c4.1-2.1,4.4-2,5.6,2.5
		c1.3,4.7,2.6,9.4,3.7,14.1c0.6,2.5,2,3.5,4.5,3.5c11.7,0,23.5,0,35.2,0c3.7,0,4.5-1,3.7-4.6c-2-8.9-4.2-17.8-6.2-26.6
		c-0.5-2.2-1.6-3.2-3.9-3.1c-12.5,0.1-25,0.1-37.5,0c-3,0-3.8,1.3-2.9,4c0.3,1.1,0.6,2.2,0.8,3.3c0.2,1.4-0.8,2.1-1.9,2.5
		c-1.1,0.4-2.1,0-2.5-1.1c-0.8-2.2-1.7-4.5-2-6.8c-0.5-3.9,2.1-6.5,6.8-6.5c13.4-0.1,26.7-0.1,40.1,0c3.9,0,6.3,2.1,7.2,5.9
		c1.4,6.1,2.8,12.2,4.4,18.2c1.5,6,0.2,5.7,7.3,5.7c4.2,0,8.5,0.1,12.7,0c3.3-0.1,5,1.1,4.6,4.6c-0.1,0.7,0,1.5,0,2.2
		c0,1-0.1,2.1,1.3,2.3c1.3,0.2,1.8-0.6,2.2-1.6c0.8-2.4,1.6-4.7,2.4-7.1c0.8-2.4,1.8-4.7,2.3-7.1c2.5-12.2,8.3-21.9,19.7-27.9
		c2.9-1.5,3.6-3.7,1.7-6.8c-1.9-3.2-3.4-6.6-5.3-10.3c-4.2,2.4-8.2,4.5-12,6.8c-2,1.2-3.8,1.4-6,0.7c-8.1-2.6-16.2-5.2-24.4-7.5
		c-3.2-0.9-5.1-2.6-6.5-5.5c-4.2-8.7-4.3-8.7-13.4-5.2c-1.6,0.6-3.4,0.9-5,2.5c1.7,5,3.2,10.3,5.2,15.4c1.4,3.7,0.2,6.9-1,10.1
		c-1,2.6-2.8,0.7-4.8,0.2c3.3-6.4,0.1-12-1.8-17.8c-2.6-8.1-5.4-16.1-8.1-24.2c-1.9-5.5,0.1-17.5,5.9-19.6c2.4,1.4,2.9,2.9,0.9,5.3
		c-3,3.7-3.8,8.1-2.3,12.7c1.3,4.1,2.7,8.2,4.3,12.8c4.8-1.8,9.2-3.4,13.8-5.1c-1.1-3-2.1-5.6-3.1-8.1c-1-2.5-0.6-4.1,2.4-4.4
		c1.6-0.2,3.2-0.5,4.8-0.8c3-0.6,6.3-0.1,7.3-4.5c0.5-2.2,3.6-2.9,5.3-4.5c1.1-1.1,2.4-2.1,3.7-3.2c-1.7-1.2-3.2-0.8-4.7-0.8
		c-8.5,0.4-17-1-25.4,1c-1.6,0.4-1.7,0.1-3.1-3.7c10.4-3.9,21.3-0.9,32-2.3c-1-4.1,0.2-7.6,3.2-10.4c3.2-3,7-3.8,11.1-2.2
		c5.6,2.2,11.1,4.5,16.6,6.9c6.3,2.7,8.9,7.7,7.8,14.5c-0.4,2.1,0.2,3.2,1.8,4.4c4.2,3.1,8.2,6.5,12.5,9.6
		C136.3,46.4,140.3,52.2,141.5,59.7z M105.2,41.9c2-4.7,4-9,5.6-13.5c1.6-4.4,0.3-8.1-3.9-10.2c-5.8-2.9-11.8-5.3-17.9-7.6
		c-3.5-1.3-6.9,1.4-7,5.1c-0.1,3,1.8,4.5,4.2,5.6c4.2,1.8,8.6,3.4,12.8,5.3c4.3,2,4.6,5.9,1.1,8.9c-0.9,0.7-1.9,1.2-2.7,2
		c-5.5,5-11.4,7.4-18.3,2.6c-0.9-0.6-2.2-1.1-2.7,0.6c-0.4,1.4,0.9,1.7,1.9,1.7c2.4,0,3.4,1.5,4.1,3.5c-2.7,1.9-5.4,0.7-8,0.4
		c-2.7,4.2-2.5,5.3,1.5,7.3c2.7,1.3,5.4,2.7,8.1,3.9c4,1.8,6.3,1.1,8.4-2.7c2.3-4.1,4.5-8.4,6.7-12.5
		C101.1,38.7,101.9,38.6,105.2,41.9z M124,80.5c12.6-5.4,17-19.8,9-29.6c-5.3-6.5-13-10.2-19.5-15.5c-2.1,2.5-2.6,5.1-3.8,7.4
		c-1.2,2.1-0.8,3.6,1,5.2c2.9,2.6,5.6,5.4,8.3,8.1c4,3.9,6.9,5-0.7,9.4c-0.4,0.2-0.8,0.5-1.4,0.9C119.4,71.2,121.7,75.7,124,80.5z
		 M75.3,134.6C75.3,134.7,75.3,134.7,75.3,134.6c-19.6,0-39.2,0-58.8,0c-1.1,0-2.2,0-3.4,0c-1.5,0-2.4,0.5-2.4,2.2
		c0,1.6,0.7,2.3,2.2,2.3c0.9,0,1.7,0,2.6,0c39.5,0,79,0,118.4,0c1.1,0,2.2,0,3.4-0.1c1.5-0.1,1.8-1.1,1.8-2.3c0-1.1-0.3-2-1.6-2.1
		c-1.1-0.1-2.2-0.1-3.4-0.1C114.5,134.6,94.9,134.6,75.3,134.6z M130,129.9c0-8.1,0-15.7,0-23.3c0-1.8-1.2-2-2.5-1.9
		c-3.6,0-7.2,0.1-10.8,0c-2,0-2.6,0.9-2.6,2.7c0,6.6,0,13.2,0,19.8c0,1.3,0.2,2.6,1.9,2.7C120.5,130,125.1,129.9,130,129.9z
		 M106.5,50.3c-3.1,7.4-6.5,13.9-8,21.5c6.1-3.6,12.2-7.3,18.1-10.7C113.1,57.3,110,54.1,106.5,50.3z M59.8,42.2
		c3.3,7.2,6.3,13.8,9.4,20.3c0.6,1.2,1.8,2.2,3,1.4c1.5-1,1.9-2.9,2.3-4.6c0.3-1.5-1.2-1.7-2.1-2.2c-4.6-2.8-5.6-6.6-3.3-11.4
		c0.7-1.5,1.9-3,1.6-4.9c-1.7-0.6-3.2,0.2-4.8,0.3C64.1,41.3,62.3,41.7,59.8,42.2z M77.3,66c2.3,0.7,4.4,1.4,6.6,2.1
		c8.7,2.7,8.7,2.7,12.4-5.8c1.8-4,3.5-8.1,5.2-12.1c-0.3-0.3-0.6-0.6-0.9-1c-4.6,8.8-8.2,19.4-21.1,11.1
		C78.4,62.2,77.4,63.6,77.3,66z M75.2,33.6c4.2,1.8,7.6,3.2,11,4.7c0.7,0.3,1.4,0.4,2.1-0.1c3-2.1,6.3-3.9,9.1-6.8
		c-3.7-2.6-8-3.2-11.6-5.2c-0.9-0.5-1.7,0-2.4,0.6C81,28.8,78.5,30.8,75.2,33.6z M75.2,130C75.2,130,75.2,130,75.2,130
		c2.1,0,4.2,0,6.4,0c1.4,0,2.4-0.5,2.5-2.1c0.1-1.9-1-2.4-2.6-2.4c-4.1,0-8.2,0-12.3,0c-1.5,0-2.3,0.8-2.3,2.3
		c0,1.5,0.8,2.3,2.3,2.3C71.2,130,73.2,130,75.2,130z M134.7,114.9C134.7,114.9,134.7,114.9,134.7,114.9c0,1,0,2,0,3
		c0,1.5,0.2,2.7,2.2,2.7c1.8,0,2.4-0.9,2.4-2.5c0-2.3,0-4.7-0.1-7c0-1.4-1.1-1.8-2.3-1.8c-1.4,0-2.1,0.5-2.1,1.9
		C134.7,112.5,134.7,113.7,134.7,114.9z"/>
	<path class="st0" d="M35.8,120.5c-4.5,0-7.1-2.7-7-7.2c0.1-3.5,3-6.3,6.5-6.3c4,0,7.4,3.4,7.3,7.4
		C42.6,118.1,39.9,120.5,35.8,120.5z M35.8,115.9c1.3,0,1.9-0.5,2-1.8c0-1.3-0.8-2.1-2-2.4c-1.2-0.3-2,0.4-2.1,1.6
		C33.6,114.8,34.4,115.7,35.8,115.9z"/>
	<path class="st0" d="M85.2,29.4c1.4,0.1,2.5,0.6,3.5,1.6c-0.3,1.5-0.4,3.1-2.2,3.7c-0.9,0.3-2.1-0.3-2.5-1.1
		C83.1,31.9,84.4,30.7,85.2,29.4z"/>
</g>
</svg>
