<?xml version="1.0" encoding="utf-8"?>
<!-- Generator: Adobe Illustrator 19.0.0, SVG Export Plug-In . SVG Version: 6.00 Build 0)  -->
<svg version="1.1" id="Capa_1" xmlns="http://www.w3.org/2000/svg" xmlns:xlink="http://www.w3.org/1999/xlink" x="0px" y="0px"
	 viewBox="0 0 156 155" style="enable-background:new 0 0 156 155;" xml:space="preserve">
<style type="text/css">
	.st0{fill:#018B99;}
</style>
<g>
	<path class="st0" d="M31.3,86.4c0-10.4,0-20,0-29.6c0-8.1-0.9-7.1,7.3-7.2c13,0,26,0,39,0c2.3,0,4.6-0.4,4.7,3.1
		c0.1,1.8,1.8,1.4,3,1.5c3,0.1,6,0,8.9,1c5,1.7,7.4,4.4,11.2,12.7c6.6-5.9,14.4-4.2,22-4.2c2,8.5-4.8,17.3-13.7,18
		c-1,0.1-2,0.1-3,0.1c-6,0-7,1.7-4.6,8.5c5.5-4.6,12.1-3.8,18.6-4c2.9-0.1,3.6,1.1,3.4,3.8c-0.6,8.1-7.4,14.4-16.1,14.8
		c-6.9,0.3-6.9,0.3-6.9,7.1c0,5.6,0.1,11.2,0,16.9c-0.1,2.8,1.1,3.7,3.8,3.7c11.6-0.1,23.2,0,34.9,0c1.1,0,2.2,0,3.4,0.1
		c1.4,0.1,1.9,0.9,1.9,2.3c0,1.3-0.6,2.1-2,2.2c-1,0-2,0.1-3,0.1c-44.2,0-88.5,0-132.7,0.1c-0.6,0-1.3,0-1.9,0
		c-1.6,0.1-3-0.2-3.1-2.3c-0.1-2.2,1.3-2.4,3-2.4c3.2,0,6.5,0,9.7,0c9.3,0,7.8,0.7,7.9-8.1c0.1-11.1,0.1-22.2,0-33.4
		C26.7,88.1,26.7,85.5,31.3,86.4z M77.5,93.5c0-11.9-0.1-23.7,0-35.6c0-2.7-0.9-3.8-3.7-3.7c-11.4,0.1-22.7,0.1-34.1,0
		c-2.6,0-3.9,0.7-3.8,3.6c0.1,8.4,0.1,16.7,0,25.1c0,2.6,0.9,3.5,3.5,3.5c8.1-0.1,16.2,0.1,24.3-0.1c3.5-0.1,4.5,1.1,4.5,4.5
		c-0.2,12.5,0.1,25-0.1,37.5c-0.1,3.7,1.5,4.4,4.7,4.3c3.1,0,4.8-0.4,4.8-4.2C77.4,116.8,77.5,105.1,77.5,93.5z M63.6,112.1
		c0-5.9-0.1-11.7,0-17.6c0-2.5-0.7-3.6-3.4-3.6c-8.5,0.1-17,0.1-25.4,0c-2.6,0-3.5,1-3.5,3.6c0.1,11.5,0.1,22.9,0,34.4
		c0,2.5,0.8,3.6,3.4,3.6c8.5-0.1,17-0.1,25.4,0c2.6,0,3.5-1,3.4-3.6C63.5,123.4,63.6,117.7,63.6,112.1z M82.1,91c0,2.7,0,4.1,0,5.4
		c0,11.2,0,22.4,0,33.7c0,1.8,1,2.4,2.6,2.4c4.2,0,8.5,0,12.7,0c2,0,2.9-0.8,2.9-2.9c-0.1-10.3,0-20.7,0-31c0-1.8-0.7-2.8-2.6-2.8
		C92.5,95.9,87.3,95.5,82.1,91z M105.9,99.7c8.2,2.6,16.8-2.2,16.6-8C114.7,89.2,107.1,92.8,105.9,99.7z M99.6,67.7
		c-1.3-7.2-9.4-10.9-16.7-7.9C84.1,66.6,91.8,69.4,99.6,67.7z M99.8,81.4c0.8-2.5,0.5-4.4,0.5-6.2c0.1-1.7-0.7-2.6-2.4-2.5
		c-5.4,0.3-10.7-0.3-15.1-4c-1.1,2.1-0.6,3.9-0.7,5.5c-0.2,2.2,0.7,3.2,3,3C90.3,76.9,95.3,77.7,99.8,81.4z M99.4,90.4
		c-1.3-6.9-8.6-10.3-16.5-7.9C83.2,88.3,90.2,92.7,99.4,90.4z M122.4,68.7c-8.9-2.4-16.2,2-16.5,8.1
		C115.2,79.1,122.6,74.2,122.4,68.7z"/>
	<path class="st0" d="M135.1,124.4c-9.4,2.4-17.5,4.5-26.2,6.7c1.8-8.9,3.9-17.1,6.4-25.7c2.1,1.8,3.7,3.1,5.2,4.4
		c1.7-0.6,2.3-1.8,3.1-2.9c10.3-14.1,13.5-29.8,9.9-46.9c-1.7-8.2-1.8-8.2,6.4-8.2c6,0,6.1,0,7.2,5.8c4.3,21.3,0,40.7-13,58.1
		C132,118.7,129.4,121.1,135.1,124.4z M138.1,57.1c-0.5,1.3,0.1,2.3,0.2,3.4c3.5,19.8-1,37.4-13.9,52.9c-1.7,2.1-3.4,4.5-6.6,1.5
		c-1.2,3.2-2,6.2-2.3,9.2c1.8,0.5,3-0.3,4.4-0.5c1.2-0.2,2.4-0.6,3.6-1c0.6-0.2,1.4-0.4,1.3-1.1c-0.5-2.5,1.6-3.5,2.8-4.9
		c14-16.5,18.7-35.5,15.2-56.7C142.4,56.8,141,55.8,138.1,57.1z"/>
	<path class="st0" d="M19.5,27.8c9.4-2.3,17.3-4.3,26.5-6.6c-2.2,9-4.3,17.1-6.3,25.2c-2.7-0.7-3.5-3.2-5.6-3.8
		c-1.5,0.4-2.1,1.7-2.9,2.8C21.2,59.4,17.8,75,21.4,91.9c1.8,8.5,1.9,8.5-6.7,8.5c-5.6,0-5.7,0-6.8-5.4c-4.5-21.5-0.2-41.2,13-58.8
		C23,33.4,25.1,31.1,19.5,27.8z M16.7,95c0.1-0.3,0.2-0.5,0.2-0.8c0-0.5,0-1-0.1-1.5c-4-20.4,0.7-38.5,14.1-54.5
		c2-2.4,3.5-3.1,6.1-0.9c1.3-3.1,2.1-6,2.3-9.1c-1.3-0.5-2.2,0-3.1,0.2c-1.6,0.4-3.1,0.8-4.7,1.2c-0.5,0.2-1.5,0.3-1.3,1.1
		c0.6,2.3-1.3,3.1-2.4,4.3C13.6,51.5,8.5,70.5,11.9,91.8C12.3,94.6,13.2,96.8,16.7,95z"/>
	<path class="st0" d="M110,41.7c1.9-2.2,3.3-3.7,4.5-5.1c-0.4-2-2-2.7-3.3-3.6c-14.2-10.2-30-13-46.9-9.5c-2.3,0.5-4.6,1.1-7.2,0.2
		c-0.7-3.6-0.3-7.3-0.3-11c0-2.1,1.9-2,3.3-2.3c22.3-5.2,42.5-1,60.9,12.7c1.3,1,2.5,2,3.9,3c1.4-1.1,2.6-2.2,4.5-3.7
		c2.1,8.6,4.2,16.6,6.4,25.7C126.8,45.9,118.7,43.9,110,41.7z M61.9,19.3c22.9-4.9,42.7,0.4,59.4,16.2c-0.1,1.8-1.7,2.3-1.2,3.9
		c2.8,0.9,5.6,2.1,8.9,1.8c0-2.8-1-5.1-1.5-7.5c-0.2-0.7-0.4-1.7-1.3-1.5c-2.1,0.4-2.9-1.3-4-2.2c-16.7-14.3-35.8-19.7-57.5-15.8
		C61.6,14.6,60.7,16,61.9,19.3z"/>
	<path class="st0" d="M77.4,146.3c22.1,0,44.2,0,66.3,0c1.1,0,2.2,0,3.4,0.1c1.3,0.1,1.6,0.9,1.7,2c0,1.2-0.2,2.3-1.7,2.4
		c-0.9,0-1.7,0.1-2.6,0.1c-44.7,0-89.5,0-134.2,0c-0.9,0-1.8,0-2.6-0.1c-1.4-0.1-1.4-1.2-1.4-2.2c0-1,0.1-2.1,1.5-2.2
		c1.1-0.1,2.2-0.1,3.4-0.1C33.1,146.2,55.2,146.2,77.4,146.3C77.4,146.2,77.4,146.3,77.4,146.3z"/>
	<path class="st0" d="M43,63.5c-1.5,0-2.3-0.8-2.4-2.3c-0.1-1.5,0.6-2.4,2.2-2.3c1.4,0.1,2.4,0.6,2.4,2.2
		C45.3,62.6,44.6,63.5,43,63.5z"/>
	<path class="st0" d="M70.9,63.5c-1.6,0-2.6-0.4-2.7-2c-0.1-1.7,0.7-2.5,2.4-2.6c1.5-0.1,2.2,0.7,2.2,2.2
		C72.8,62.5,72.4,63.6,70.9,63.5z"/>
	<path class="st0" d="M54.4,61c0.1,1.4-0.3,2.4-2,2.5c-1.6,0.1-2.6-0.4-2.6-2.3c0-1.6,0.6-2.3,2.2-2.3C53.5,58.9,54.6,59.3,54.4,61z
		"/>
	<path class="st0" d="M59.3,59.5c1.3-0.8,2.6-0.8,4-0.1c0.3,1.3,0.9,2.7-0.5,3.7c-0.8,0.6-2,0.6-2.9,0
		C58.4,62.3,59.1,60.8,59.3,59.5z"/>
	<path class="st0" d="M41.3,72.6c-0.7-1.7-1.2-3.2,0.4-4.2c0.9-0.6,2.2-0.6,3.1,0.3c0.8,0.8,0.7,1.9,0.3,2.8
		C44.2,73.6,42.6,72.3,41.3,72.6z"/>
	<path class="st0" d="M72.3,68.5c0.7,1.3,0.7,2.6-0.1,3.9c-1.3,0.2-2.7,0.8-3.7-0.6C68,71,67.9,69.8,68.5,69
		C69.5,67.6,71,68.1,72.3,68.5z"/>
	<path class="st0" d="M45.2,79.7c0.1,1.6-0.8,2.1-2.3,2.2c-1.6,0-2.3-0.7-2.3-2.2c0-1.8,0.7-2.4,2.5-2.4
		C44.9,77.3,45.3,78.2,45.2,79.7z"/>
	<path class="st0" d="M72.2,77.4c0.8,1.5,0.8,2.8,0,4.1c-1.3,0.3-2.8,0.8-3.7-0.6c-0.6-0.8-0.5-2.1,0-2.9
		C69.5,76.6,71,77.5,72.2,77.4z"/>
	<path class="st0" d="M52.5,72.6c-1.7,0.1-2.5-0.4-2.6-2c0-1.7,0.6-2.5,2.4-2.5c1.6,0,2.2,0.8,2.2,2.3C54.4,71.9,54,72.9,52.5,72.6z
		"/>
	<path class="st0" d="M63.5,70.3c0.1,1.7-0.5,2.4-2.1,2.4c-1.8,0-2.4-0.8-2.3-2.5c0-1.7,0.9-2.1,2.4-2.1
		C63,68.2,63.7,68.9,63.5,70.3z"/>
	<path class="st0" d="M63.2,77.6c0.3,1.5,1,3-0.6,3.9c-0.9,0.5-2.3,0.6-3.1-0.4c-0.7-0.8-0.6-2-0.2-2.8
		C60.1,76.6,61.6,77.4,63.2,77.6z"/>
	<path class="st0" d="M52.2,81.8c-1.8,0.2-2.3-0.7-2.3-2.2c0-1.5,0.6-2.2,2.2-2.3c1.8,0,2.4,0.7,2.4,2.5
		C54.4,81.4,53.6,81.9,52.2,81.8z"/>
	<path class="st0" d="M40.6,125.3c0.1,1.6-0.3,2.5-1.8,2.6c-1.6,0.1-2.7-0.4-2.7-2.2c0-1.5,0.7-2.3,2.2-2.3
		C39.8,123.2,40.5,124.2,40.6,125.3z"/>
	<path class="st0" d="M40.6,98c-0.1,1.4-0.6,2.3-2.2,2.3c-1.8,0-2.4-0.9-2.4-2.5c0-1.7,1-2.1,2.4-2.1C40,95.7,40.7,96.5,40.6,98z"/>
	<path class="st0" d="M49.8,125.3c0.2,1.6-0.4,2.4-2,2.5c-1.5,0.1-2.4-0.3-2.5-2c-0.1-1.5,0.2-2.7,2.1-2.7
		C48.9,123.3,50,123.7,49.8,125.3z"/>
	<path class="st0" d="M40.6,115.8c0,1.7-0.3,2.8-2,2.7c-1.4,0-2.5-0.2-2.5-1.9c-0.1-1.6,0.3-2.6,2.2-2.6
		C39.8,114,40.6,114.6,40.6,115.8z"/>
	<path class="st0" d="M36.3,109.4c-0.1-2.1-1.1-4.1,1.7-4.4c1.7-0.2,2.6,0.4,2.6,2.2C40.5,110.4,38.3,109.3,36.3,109.4z"/>
	<path class="st0" d="M59,125.6c0.2,1.6-0.7,2.2-2.2,2.2c-1.5,0-2.3-0.5-2.3-2.2c0-1.8,0.7-2.5,2.4-2.5
		C58.5,123.3,59.1,124.1,59,125.6z"/>
	<path class="st0" d="M49.8,107c0.1,1.4-0.2,2.4-2,2.5c-1.4,0-2.5-0.2-2.5-1.9c0-1.5,0.2-2.7,2.2-2.6C49,105,49.9,105.4,49.8,107z"
		/>
	<path class="st0" d="M59.1,109.2c-2.5,0.2-4.6,1.1-4.6-2.1c0-2,1.2-2.3,2.7-2.1C60.2,105.3,58.5,107.5,59.1,109.2z"/>
	<path class="st0" d="M49.8,116.3c0.1,1.7-0.8,2.2-2.3,2.3c-1.5,0-2.2-0.7-2.2-2.2c0-1.8,0.8-2.4,2.5-2.3
		C49.5,114.1,50,115,49.8,116.3z"/>
	<path class="st0" d="M49.8,98.1c0.1,1.6-0.7,2.2-2.3,2.2c-1.6,0-2.2-0.8-2.2-2.3c0-1.6,0.7-2.2,2.3-2.2
		C49.2,95.8,50,96.5,49.8,98.1z"/>
	<path class="st0" d="M59,97.9c0.1,1.7-0.6,2.4-2.2,2.4c-1.5,0-2.3-0.5-2.3-2.1c0-1.7,0.7-2.5,2.4-2.4C58.4,95.8,59.2,96.5,59,97.9z
		"/>
	<path class="st0" d="M59,116.2c0.1,1.5-0.3,2.4-2,2.4c-1.7,0-2.6-0.5-2.5-2.3c0-1.6,0.6-2.2,2.2-2.2
		C58.2,114.1,59.1,114.5,59,116.2z"/>
</g>
</svg>
