<?xml version="1.0" encoding="utf-8"?>
<!-- Generator: Adobe Illustrator 19.0.0, SVG Export Plug-In . SVG Version: 6.00 Build 0)  -->
<svg version="1.1" id="Capa_1" xmlns="http://www.w3.org/2000/svg" xmlns:xlink="http://www.w3.org/1999/xlink" x="0px" y="0px"
	 viewBox="0 0 163 161" style="enable-background:new 0 0 163 161;" xml:space="preserve">
<style type="text/css">
	.st0{fill:#111B2D;}
	.st1{fill:#008996;}
</style>
<g>
	<path class="st0" d="M15.6,6.2"/>
	<path class="st1" d="M39.3,8.4c2-0.7,4.2-0.7,6.3-0.7c22.9,0,45.8,0.1,68.7-0.1c5.9,0,10.1,2.1,12.5,7.5
		c0.7,10.4,0.1,20.7,0.3,31.1c0,1.5-0.3,2.9-2.1,2.8c-2.1-0.1-2.2-1.8-2.2-3.3c0-8.5,0-17,0-25.5c0-6.1-1.9-8.1-8.1-8.1
		c-22.9,0-45.7-0.1-68.6-0.1c-1.2,0-2.4,0.1-4.1,0.2c0,6,0,11.7,0,17.4c0,7.1-2.5,9.5-9.4,9.5c-5.5,0-11,0-16.5,0.1
		c-0.2,0-0.5,0.1-0.7,0.2c-0.9,1.2-0.6,2.6-0.6,3.9c0,32.9,0,65.7,0,98.6c0,6.4,2.1,8.6,8.5,8.6c30.4,0,60.7,0,91.1,0
		c6.2,0,8-1.7,8.4-7.9c0.1-1.7,0.2-3.6,2.4-3.4c2,0.1,1.9,1.9,1.9,3.5c0.2,7.5-3.9,12.1-11.6,12.1c-31.2,0.1-62.5,0.1-93.7,0
		c-7.3,0-11.4-4.2-11.4-11.5c-0.1-34,0-68,0-102c0-3.3,0.9-6.2,3.2-8.5c7.3-7.3,14.6-14.7,22-22C36.7,10,38,9.3,39.3,8.4z
		 M19.2,34.8c4.9,0,9.8,0,14.8,0c1.9,0,3.4-0.8,3.4-2.7c0.2-5.3,0.1-10.6,0.1-15.8C31.3,22.6,25.4,28.7,19.2,34.8z"/>
	<path class="st1" d="M110,125.4c0-1.6-0.1-3.3,0-4.9c0.2-3.2,0.2-6-3.8-7.4c-2.3-0.8-3.2-3.4-3.6-5.8c-0.3-2.5-1.5-3.9-3.8-5.1
		c-4.7-2.5-6.1-6.8-3.8-11.7c1.1-2.4,1-4.4-0.1-6.7c-2.2-4.6-0.7-9.1,3.7-11.5c2.2-1.2,3.4-2.5,3.9-5c1.1-5.7,4.8-8.3,10.5-7.5
		c2.2,0.3,3.8-0.3,5.4-1.8c4.5-4.1,8.6-4.1,12.9-0.1c1.7,1.6,3.3,2.2,5.7,1.8c5.4-0.9,9.2,1.9,10.2,7.4c0.4,2.3,1.4,3.8,3.5,4.9
		c5.1,2.7,6.4,6.8,4.1,11.9c-1,2.2-1.1,4.1,0,6.4c2.4,5.1,1,9.1-4,11.9c-2,1.1-3.2,2.6-3.5,4.9c-0.4,3.2-2.1,5.7-5.1,6.9
		c-2,0.8-2.2,2.1-2.2,3.8c0,5,0.1,10,0,15c-0.1,5.8-3.4,7.5-8.4,4.6c-0.2-0.1-0.5-0.2-0.6-0.4c-4-3.7-7.9-3.7-12.1-0.1
		c-1.8,1.6-4,2.7-6.5,1.3c-2.5-1.4-2.5-3.8-2.4-6.2C110,129.9,110,127.7,110,125.4z M136.2,110.3c5.3,0.4,6.2-0.2,7.1-4.8
		c0.6-3.2,2.4-5.4,5.2-6.8c3-1.5,4.1-3.6,2.4-6.7c-1.8-3.2-1.8-6.4,0-9.6c1.6-2.9,0.8-5.1-2.1-6.5c-3.4-1.6-5.2-4.1-5.7-7.8
		c-0.5-3.4-2.6-4.8-5.8-4.1c-3.4,0.7-6.1-0.3-8.5-2.6c-3-2.9-4.5-2.9-7.6,0c-2.3,2.2-4.9,3.2-8.2,2.6c-4.1-0.7-5.4,0.4-6.2,4.5
		c-0.6,3.2-2.2,5.4-5,7c-3.7,2-4.2,3.5-2.4,7.2c1.4,2.9,1.4,5.7,0.1,8.6c-1.8,3.9-1.4,5.3,2.6,7.5c2.7,1.5,4.4,3.7,4.8,6.7
		c0.4,3.7,2.4,5.3,6.1,4.7c3.3-0.5,6.2,0.2,8.5,2.8c2.5,2.7,4.9,2.5,7.4-0.1C130.8,110.7,133.5,109.9,136.2,110.3z M135.5,114.2
		c-4.2,1.3-6.2,5.3-10.6,5.3c-4.4,0-6.3-4.5-10.4-5.1c0,6.9,0,13.3,0,20.9c7-7.4,13.9-7.3,21,0C135.5,127.7,135.5,121.3,135.5,114.2
		z"/>
	<path class="st1" d="M104.3,34.9c0-2.9,0-5.1,0-7.5c-14.9,0-29.6,0-44.4,0c-1,2.4-0.6,4.8-0.3,7.3c1.5,0.2,2.9,0.2,4.2,0.5
		c1,0.2,1.8,1,1.7,2.2c-0.1,1-0.6,1.6-1.5,1.9c-4.8,1.8-8.9-0.9-9-6.1C54.7,23,55.1,22.7,65,22.7c12.4,0,24.7,0,37.1,0
		c5.4,0,6.8,1.4,6.8,6.9c0,1.1,0,2.2,0,3.4c-0.1,4.6-1.7,6.2-6.4,6.3c-9,0-18,0-27,0c-1.7,0-4,0.4-3.9-2.2c0.1-2.5,2.3-2.2,4-2.2
		c8.1,0,16.2,0,24.4,0C101.3,34.9,102.7,34.9,104.3,34.9z"/>
	<path class="st1" d="M56.5,75.1c8.6,0,17.2,0,25.8,0c1.6,0,3.6-0.2,3.6,2.1c0,2.3-2,2.2-3.6,2.2c-17.2,0-34.4,0-51.7,0
		c-1.7,0-4,0.1-3.8-2.4c0.1-2.2,2.2-1.9,3.8-1.9C39.2,75.1,47.9,75.1,56.5,75.1z"/>
	<path class="st1" d="M56.4,90.2c8.6,0,17.2,0,25.8,0c1.6,0,3.6-0.2,3.7,2.1c0.1,2.3-1.9,2.3-3.5,2.3c-17.4,0-34.7,0-52.1,0
		c-1.7,0-3.6-0.1-3.5-2.3c0.1-2.2,2.1-2.1,3.7-2.1C39.2,90.2,47.8,90.2,56.4,90.2z"/>
	<path class="st1" d="M56.1,109.8c-8.2,0-16.5,0-24.7,0c-1,0-2,0-3-0.2c-0.9-0.2-1.6-0.9-1.7-1.8c-0.1-1.2,0.6-1.9,1.6-2.2
		c0.9-0.2,2-0.2,3-0.2c16.7,0,33.5,0,50.2,0c0.5,0,1,0,1.5,0c1.5,0,2.9,0.4,2.9,2.2c0,1.8-1.3,2.2-2.9,2.2c-5.1,0-10.2,0-15.4,0
		C63.8,109.8,60,109.8,56.1,109.8z"/>
	<path class="st1" d="M56.4,64.2c-8.6,0-17.2,0-25.8,0c-1.6,0-3.7,0.3-3.8-2c-0.1-2.5,2.1-2.3,3.9-2.3c17.1,0,34.2,0,51.2,0
		c1.7,0,4-0.3,3.9,2.2c-0.1,2.5-2.4,2-4,2.1C73.3,64.2,64.8,64.2,56.4,64.2z"/>
	<path class="st1" d="M42.6,127.7c4.2,0,8.5,0,12.7,0c1.5,0,3,0.2,3.1,2c0.1,2-1.5,2.4-3.1,2.4c-8.5,0-17,0-25.5,0
		c-1.6,0-3.2-0.4-3.1-2.4c0.1-1.7,1.6-1.9,3.1-1.9C34.1,127.7,38.4,127.7,42.6,127.7z"/>
	<path class="st1" d="M143,87.1c0.1,10.1-7.9,18.2-18,18.2c-10,0-18.2-8.1-18.2-18.1c0-9.8,8.1-17.9,17.9-18
		C134.8,69.1,142.9,77,143,87.1z M124.9,100.9c7.7,0,13.9-6.2,13.8-13.8c-0.1-7.5-6.1-13.5-13.7-13.5c-7.7,0-13.8,6.1-13.8,13.8
		C111.3,94.9,117.4,100.9,124.9,100.9z"/>
</g>
</svg>
