<?xml version="1.0" encoding="utf-8"?>
<!-- Generator: Adobe Illustrator 19.0.0, SVG Export Plug-In . SVG Version: 6.00 Build 0)  -->
<svg version="1.1" id="Capa_1" xmlns="http://www.w3.org/2000/svg" xmlns:xlink="http://www.w3.org/1999/xlink" x="0px" y="0px"
	 viewBox="0 0 130 159" style="enable-background:new 0 0 130 159;" xml:space="preserve">
<style type="text/css">
	.st0{fill:#008B99;}
</style>
<g>
	<path class="st0" d="M104.8,111.4c4.4,8.2,8.6,16,12.8,23.8c2.3,4.4,1.6,6-3.3,5.5c-8.8-1-14.6,2.1-18.6,9.9
		c-2.2,4.4-4,4.2-6.4-0.2c-4.3-7.8-8.5-15.7-12.5-23.6c-1.2-2.4-2.3-3-4.9-1.9c-4.8,2.1-9.5,1.1-14-1c-1.5,0.7-1.8,2.1-2.5,3.3
		c-4.2,7.8-8.4,15.6-12.6,23.4c-2.1,3.9-3.9,4.2-5.7,0.6c-4.3-8.4-10.5-11.8-19.9-10.5c-3.8,0.5-4.6-1.3-2.7-4.9
		c3.7-7.1,7.5-14.1,11.3-21.1c1.2-2.2,1.5-3.6-0.9-5.3c-3.9-2.8-5.3-7.2-6-11.7c-1.1-7.3-3.8-13.9-8.2-19.8
		C5.1,70.4,4.9,62.5,10.5,55c4.5-6.1,7.2-12.7,8.4-20.2c1.4-8.8,6.5-14.5,15.6-15.7c7.6-1.1,14.3-4,20.5-8.6
		c7.1-5.3,14.7-5.4,21.9-0.2c6.6,4.8,13.9,7.7,21.9,9c7.9,1.3,12.9,6.1,14.2,14c1.4,8.4,4.5,16,9.5,22.9c4.8,6.6,4.6,13.7,0,20.3
		c-5,7-8.1,14.5-9.4,23C112.2,104.3,109.6,108.5,104.8,111.4z M66.2,121.8c3.4-0.2,6.5-1.6,9.2-3.6c6.1-4.6,12.8-7.7,20.5-8.6
		c8.3-1,12.6-5.9,13.6-14c1-7.5,4-14.1,8.6-20c4.2-5.5,5.1-11.5,0.7-17.3c-5.3-7.1-8.4-14.9-9.9-23.6c-1-6.2-4.8-10.1-11.1-11
		C88.9,22.4,81,19,73.9,13.7c-5.3-3.9-10.6-3.6-15.6,0c-7.1,5.2-14.9,8.5-23.6,9.8c-6.7,1-10.4,5.1-11.4,11.7
		C22.1,43.5,19,51,13.9,57.7c-4.2,5.5-4.3,11.4-0.1,17c5.1,6.9,8.3,14.4,9.5,22.9c1,6.6,5,10.6,11.5,11.5c8.5,1.2,16.1,4.4,22.9,9.5
		C60.2,120.5,63,121.6,66.2,121.8z M91.8,115.1c0,1.8,1,3,1.7,4.3c1.7,3.3,3.5,6.6,5.2,9.9c0.6,1.2,0.8,2.5-0.7,3.2
		c-1.4,0.7-2.4-0.1-3.1-1.3c-0.6-1-1.1-2-1.6-2.9c-2.1-3.9-4.2-7.8-6.3-11.7c-2.9,0.6-4.7,2.2-6.6,3.5c-1,0.6-1.3,1.5-0.8,2.5
		c4.3,8,8.5,16,12.9,24.3c2.5-2,3.9-4.5,5.3-6.7c1.6-2.5,3.5-3.6,6.4-3.5c2.7,0,5.5,0.2,8.6-0.9c-2.9-5.4-5.7-10.7-8.4-15.9
		c-3.8-7.3-3.8-7.3-11.8-5.2C92.4,114.7,92.2,114.9,91.8,115.1z M40.9,115.5c-8-3.7-8.7-3.4-12.5,3.5c-1.3,2.4-2.6,4.8-3.9,7.3
		c-1.7,3.1-3.3,6.3-5.3,10c3.4,0.2,6,0.5,8.6,0.4c3.1-0.1,5.2,0.9,6.8,3.6c1.3,2.3,3.1,4.3,5,7c4.7-8.7,8.9-16.6,13.1-24.4
		c0.6-1,0.5-1.9-0.5-2.6c-2.1-1.3-4-3-6.3-3.6c-1.4,0.7-1.7,1.8-2.2,2.8c-2.1,4-4.2,7.9-6.4,11.9c-0.7,1.2-1.7,2-3.1,1.2
		c-1.4-0.8-1.4-1.9-0.7-3.2c0.5-1,1-2,1.6-3C37.1,122.8,39,119.2,40.9,115.5z"/>
	<path class="st0" d="M64.7,46.3c-2.9,0.4-6.4,2.2-10.1,3.4c-1.3,0.4-2.6,0.9-3.9,1.2c-1.2,0.2-2.3-0.1-2.6-1.5
		c-0.3-1.1,0.2-2,1.3-2.4c5.5-2,11.1-3.9,16.6-5.7c0.7-0.2,1.7,0.2,2.5,0.5c7.3,2.5,14.6,5.2,21.9,7.7c2.5,0.9,3.6,2.2,3.3,4.9
		c-2.4,16.8-10.3,30.3-24.2,40.2c-1.9,1.4-3.7,1.9-5.8,0.4c-14.1-9.8-22.5-23-24.8-40.1c-0.1-0.9-0.2-1.8-0.1-2.6
		c0.1-1.1,0.6-1.9,1.8-2.1c1.2-0.1,2,0.5,2.2,1.6c0.3,1.3,0.5,2.7,0.7,4.1c2.2,14,8.9,25.3,20.1,33.9c1.9,1.5,3.2,1.5,5.2,0
		c11-8.4,17.6-19.4,20.2-33c0.3-1.4,0.8-3-1.3-3.7c-6.8-2.3-13.6-5-20.6-6.6C66.7,46.2,66.1,46.3,64.7,46.3z"/>
	<path class="st0" d="M109.6,66.7c-0.6,23.1-16.8,40.8-39.7,43.1c-10.7,1.1-20.3-2-29.1-8c-1.5-1-3.7-2.1-1.9-4.4
		c1.6-2,3.1,0,4.5,0.9c14.2,9.4,28.9,10.3,43.3,1.3c14.5-9,20.6-22.5,18.4-39.6c-0.8-6.2-3.3-11.7-6.9-16.8c-1-1.4-2.6-3.1-0.5-4.5
		c1.7-1.1,2.9,0.6,3.8,2C107,48.5,109.8,57.1,109.6,66.7z"/>
	<path class="st0" d="M69.9,22.6c5.8-0.1,14,2.9,21.5,8.1c1.4,1,3.4,2.1,2.1,4.1c-1.4,2.2-3.6,0.7-4.9-0.3c-7.5-6-16.3-8.1-25.6-7.3
		C31.4,30,17.3,64.5,33.8,88.6c0.3,0.4,0.6,0.8,0.9,1.2c0.9,1.3,1.9,2.6,0.2,3.9c-1.7,1.3-2.7-0.1-3.7-1.3
		c-5.4-7.1-8.2-15.1-8.7-23.9C21.1,43.6,41.4,22.5,69.9,22.6z"/>
	<path class="st0" d="M64.1,72.4c3.9-4.2,7-7.5,10-10.8c1-1.1,2.2-2.5,3.8-1c1.8,1.7,0.2,2.9-0.9,4.1c-3.4,3.5-6.9,6.9-10.3,10.3
		c-1.5,1.5-2.9,1.9-4.5,0.3c-2.3-2.3-4.6-4.6-6.9-6.9c-0.9-1-1.4-2.1-0.3-3.3c1.2-1.2,2.4-0.5,3.3,0.5C60,67.6,61.7,69.6,64.1,72.4z
		"/>
</g>
</svg>
