<?xml version="1.0" encoding="utf-8"?>
<!-- Generator: Adobe Illustrator 19.0.0, SVG Export Plug-In . SVG Version: 6.00 Build 0)  -->
<svg version="1.1" id="Capa_1" xmlns="http://www.w3.org/2000/svg" xmlns:xlink="http://www.w3.org/1999/xlink" x="0px" y="0px"
	 viewBox="0 0 148 150" style="enable-background:new 0 0 148 150;" xml:space="preserve">
<style type="text/css">
	.st0{fill:#008C9B;}
</style>
<g>
	<path class="st0" d="M74.5,85.5c-19.7,0-39.5,0-59.2,0c-6,0-8.7-1.4-9.3-5.4C5.1,74.7,5,68.8,11.1,67.3c1.5-0.4,1.5-1.4,1.7-2.5
		C15.4,39.4,28.5,21.7,52,11.7c1.2-0.5,2.1-1.2,2.6-2.4C56,6.1,58.6,5,61.9,5c8.5,0,17,0,25.5,0c3.3,0,5.9,1,7.3,4.2
		c0.6,1.4,1.7,2,3,2.6c23.1,10,36.1,27.5,38.9,52.6c0.2,1.7,0.7,2.5,2.4,3.2c4.4,1.8,5.9,6.3,4.5,12.5c-0.8,3.7-3.3,5.4-8.2,5.4
		C114.9,85.5,94.7,85.5,74.5,85.5z M95.7,16.6C95,18,95.3,19.5,95.3,21c0,10.9,0,21.7,0,32.6c0,1.7,0.4,3.9-2.1,4
		c-2.9,0.1-2.3-2.4-2.4-4.1c0-0.5,0-1,0-1.5c0-11.1,0-22.2,0-33.4c0-10,0.9-8.8-9.1-9.1c-4-0.1-4.8,1.4-4.7,5
		C77.1,28.6,77,42.7,77,56.8c0,1.1,0,2.3-0.1,3.4c-0.2,1.2-0.8,2.1-2.2,2.1c-1.3,0-2.1-0.8-2.2-2.1c-0.1-1.2-0.1-2.5-0.1-3.7
		c0-12.6,0-25.2,0-37.9c0-9.2,0-9-9.2-9.1c-3.6,0-4.8,1.4-4.8,4.9c0.1,12.7,0.1,25.5,0.1,38.2c0,1,0,2-0.1,3c-0.1,1.3-0.9,2.1-2.2,2
		c-1.3,0-2-0.8-2.2-2.1c-0.1-1-0.1-2-0.1-3c0-10.7,0-21.5,0-32.2c0-1.3,0.5-2.7-0.7-3.8C34.6,21.4,15,49.1,17.8,67
		c37.9,0,75.8,0,113.7,0C134.5,49.3,112.9,19,95.7,16.6z M75,71.8c-20.1,0-40.2,0-60.3,0c-3.2,0-4.5,1-4.5,4.3
		c0.1,4.4,0.4,4.8,5,4.8c26.6,0,53.2,0,79.8,0c13.2,0,26.5,0,39.7-0.1c1.6,0,3.3,0.3,4-1.8c1.6-4.6-0.2-7.3-4.9-7.3
		C114.2,71.8,94.6,71.8,75,71.8z"/>
	<path class="st0" d="M16.7,108.5c2.5-8.9,5.7-11.4,14.3-11.4c29.2,0,58.5,0.1,87.7,0c5.8,0,10.3,1.8,12.6,7.4
		c0.9,2.3,2.8,1.7,4.4,1.8c7.7,0.1,8-1.4,7.9,7.9c0,3.7-0.1,7.5,0,11.2c0,2.6-1.1,4-3.8,3.9c-0.4,0-0.8,0-1.1,0
		c-4.2-0.5-6.9,0.3-8.7,5.1c-2.1,5.6-7.3,8.4-13.4,8.6c-4.9,0.2-9.7,0.1-14.6,0c-10.2-0.2-18.3-4.5-24.3-12.7
		c-2.7-3.7-3.5-3.7-6.2,0c-6.2,8.4-14.5,12.7-25,12.8c-4.5,0-9,0.1-13.5,0c-6.1-0.1-10.9-2.9-13.7-8.3c-1.3-2.6-2.9-3.2-5.5-3.1
		c-8.2,0.1-8.2,0-8.2-8.1c0-3.7,0.1-7.5,0-11.2c0-2.7,1.2-3.9,3.9-3.8C11.9,108.6,14.2,108.5,16.7,108.5z M74.6,101.7
		c-15,0-30,0-45,0c-5.3,0-7.8,2.6-7.8,7.8c-0.1,5.6-0.1,11.2,0,16.9c0.1,7.2,4.8,11.8,12.1,12c4.2,0.1,8.5,0.1,12.7,0
		c9-0.1,16.1-3.8,21.4-11.2c4.3-6,9-6,13.3,0c5.2,7.3,12.4,11,21.4,11.1c4.2,0,8.5,0,12.7,0c7.2-0.1,11.9-4.8,12.1-12
		c0.1-5.4,0.1-10.7,0-16.1c0-6.2-2.4-8.6-8.7-8.6C104.1,101.7,89.4,101.7,74.6,101.7z M135.5,117.8c-2.5-0.4-3.4,0.9-3.4,3.4
		c0,2.5,1.1,3.3,3.4,3.4c2.6,0.1,3.5-1.1,3.5-3.6C138.9,118.7,138.2,117.4,135.5,117.8z M17.1,123.6c0.4-2.5-0.5-3.7-3.2-3.6
		c-2.3,0-3.7,0.4-3.7,3.2c0,2.5,0.5,4,3.5,3.9C16.1,127,17.6,126.4,17.1,123.6z M139.4,111.9c-2.9-1.2-4.9-1.7-7.6,0.5
		C134.7,113.1,136.6,113.5,139.4,111.9z M17.9,114.5c-3.1-1.8-5.2-1.8-7.8-0.3C12.6,115.9,14.7,115.5,17.9,114.5z"/>
	<path class="st0" d="M47.9,106.3c4.6,0,9.2,0,13.9,0c1.6,0,3.2,0.1,3.4,2.1c0.1,2.3-1.7,2.4-3.4,2.4c-7.6,0-15.2,0-22.8,0
		c-8,0-8,0-8,7.9c0,1.1,0,2.2-0.1,3.4c-0.1,1.3-0.7,2.2-2,2.3c-1.5,0.1-2.4-0.8-2.4-2.3c0-3.5-0.3-7,0.3-10.4
		c0.6-3.6,3.4-5.4,7.1-5.4C38.5,106.2,43.2,106.2,47.9,106.3C47.9,106.2,47.9,106.3,47.9,106.3z"/>
	<path class="st0" d="M74.6,110.8c-1.7-0.2-4.2,0.5-4.2-2.2c0-3,2.7-2.2,4.5-2.3c1.8-0.1,4.2-0.4,4.1,2.4
		C78.8,111.3,76.4,110.7,74.6,110.8z"/>
</g>
</svg>
