<?xml version="1.0" encoding="utf-8"?>
<!-- Generator: Adobe Illustrator 19.0.0, SVG Export Plug-In . SVG Version: 6.00 Build 0)  -->
<svg version="1.1" id="Layer_5" xmlns="http://www.w3.org/2000/svg" xmlns:xlink="http://www.w3.org/1999/xlink" x="0px" y="0px"
	 viewBox="144 -220 512 512" style="enable-background:new 144 -220 512 512;" xml:space="preserve">
<style type="text/css">
	.st0{fill:#142850;}
</style>
<path class="st0" d="M490.4-12.6l-5.6-15c-5,1.9-10.1,3.6-15.1,5.1l4.6,15.3C479.7-8.8,485.1-10.6,490.4-12.6z"/>
<path class="st0" d="M440,22.2V0.7c5.9-1,11.9-2.1,17.8-3.5l-3.6-15.6c-7.7,1.8-15.5,3.2-23.2,4.2l-7,0.9v35.4c0,2.1,0,4.3,0.2,6.4
	l16-0.8C440,26,440,24.1,440,22.2L440,22.2z"/>
<path class="st0" d="M296-116c-26.5,0-48,21.5-48,48s21.5,48,48,48s48-21.5,48-48S322.5-116,296-116z M296-36c-17.6,0-32-14.4-32-32
	s14.4-32,32-32s32,14.4,32,32S313.6-36,296-36z"/>
<path class="st0" d="M507.8-69.7l-3.8-2.1l-3.8,2.1C469.6-53.1,434.9-44.2,400-44l-8,0v66.2c0,69.4,43.9,132,109.3,155.6l2.7,1
	l2.7-1C572.1,154.2,616,91.7,616,22.2V-44l-8,0C573.1-44.2,538.5-53.1,507.8-69.7L507.8-69.7z M600,22.2c0,61.7-38.5,117.5-96,139.6
	c-57.5-22.1-96-77.8-96-139.6v-50.4c33.4-1.4,66.4-10.1,96-25.4c29.6,15.3,62.6,24,96,25.4V22.2z"/>
<path class="st0" d="M472,32.7L436.7,68l51.3,51.3L587.3,20L552-15.3l-64,64L472,32.7z M564.7,20L488,96.7L459.3,68L472,55.3l16,16
	l64-64L564.7,20z"/>
<path class="st0" d="M648-76h-38.6c-36,0-70.8-10.5-101-30.7l-4.7-2.7l-4.4,2.9C481.1-94.3,461-85.7,440-80.8v-17.5l-21.1-5
	c-2.7-9.3-6.4-18.2-11-26.7l11.4-18.4l-42.9-42.9L358-179.9c-8.5-4.7-17.4-8.4-26.7-11l-5-21.1h-60.7l-5,21.1
	c-9.3,2.7-18.2,6.4-26.7,11l-18.4-11.4l-42.9,42.9l11.4,18.4c-4.7,8.5-8.4,17.4-11,26.7l-21.1,5v60.7l21.1,5
	c2.7,9.3,6.4,18.2,11,26.7l-11.4,18.4l42.9,42.9L234,43.9c8.5,4.7,17.4,8.4,26.7,11l5,21.1h60.7l5-21.1c9.3-2.7,18.2-6.4,26.7-11
	l3.7,2.3c4.3,34.6,17.6,67,38,94.2l-26.9,98.7l39.5-9.9l29.9,49.8l26.8-80.5c10.4,5.3,21.4,9.7,32.8,13.1l2.3,0.7l2.3-0.7
	c11.5-3.4,22.4-7.8,32.8-13.1l26.8,80.5l29.9-49.8l39.5,9.9l-26.9-98.7C633.4,107,648,65.7,648,22.2L648-76z M358.1,25.2l-4.2,2.5
	c-9.7,5.9-20.2,10.2-31.2,12.9l-4.8,1.2L313.7,60h-35.3l-4.3-18.2l-4.8-1.2c-11-2.7-21.5-7-31.2-12.9l-4.2-2.5L218,35l-25-25
	l9.8-15.9l-2.5-4.2c-5.9-9.7-10.2-20.2-12.9-31.2l-1.2-4.8L168-50.3v-35.3l18.2-4.3l1.2-4.8c2.7-11,7-21.5,12.9-31.2l2.5-4.2
	L193-146l25-25l15.9,9.8l4.2-2.5c9.7-5.9,20.2-10.2,31.2-12.9l4.8-1.2l4.3-18.2h35.3l4.3,18.2l4.8,1.2c11,2.7,21.5,7,31.2,12.9
	l4.2,2.5L374-171l25,25l-9.8,15.9l2.5,4.2c5.9,9.7,10.2,20.2,12.9,31.2l1.2,4.8l18.2,4.3v7.9c-8.4,1.2-16.8,1.8-25.4,1.8h-7
	c-4.1-49.2-45.4-88-95.6-88c-52.9,0-96,43.1-96,96s43.1,96,96,96c23.8,0,46.6-9,64-24.5v18.8c0,1.4,0.1,2.8,0.2,4.2L358.1,25.2z
	 M360-76v55.8C344.9,0,321.2,12,296,12c-44.1,0-80-35.9-80-80s35.9-80,80-80c41.4,0,75.6,31.6,79.6,72H360z M437.9,241l-18.1-30.2
	l-24.5,6.1l16.8-61.6c12.4,13.6,26.7,25.5,42.6,35.3L437.9,241z M612.7,216.9l-24.5-6.1L570.1,241l-16.8-50.4
	c15.9-9.8,30.2-21.7,42.6-35.3L612.7,216.9z M632,22.2c0,79.2-52.5,150.1-128,173.4c-75.5-23.3-128-94.3-128-173.4V-60h22.6
	C436-60,472.3-70.5,504-90.5c31.6,20,67.9,30.5,105.4,30.5H632V22.2z"/>
</svg>
