<?xml version="1.0" encoding="utf-8"?>
<!-- Generator: Adobe Illustrator 19.0.0, SVG Export Plug-In . SVG Version: 6.00 Build 0)  -->
<svg version="1.1" id="Capa_1" xmlns="http://www.w3.org/2000/svg" xmlns:xlink="http://www.w3.org/1999/xlink" x="0px" y="0px"
	 viewBox="30 -136.4 284.4 345.4" style="enable-background:new 30 -136.4 284.4 345.4;" xml:space="preserve">
<style type="text/css">
	.st0{fill:#FFFFFF;}
</style>
<g>
	<path class="st0" d="M108.1,64.5c12.5,0,24.3,0,36.2,0c1.5,0,2.6-0.5,3.7-1.4c13.1-10.2,27.2-11.4,42.2-5
		c10.9,4.6,21.7,9.4,33.1,13.6c-0.2-4.3,2.3-6.2,5.8-7.6c15.7-6.5,32.1-9.8,48.9-11.7c5-0.5,10-0.8,14.9-1.1c5.6-0.4,7.6,1.5,7.8,7
		c1.2,31.7,2.3,63.4,3.5,95.1c0.3,7.5-1.1,9-8.6,9.3c-9,0.3-18,0.6-27,1c-6.7,0.3-7.3-0.2-9.5-6.3c-0.4-1-0.4-2.3-1.7-3.1
		c-2.8,1.9-5.6,3.8-8.6,5.7c-1.2,0.8-1,1.8-0.9,2.9c0.7,11-6,18.8-17,20.2c-1,0.1-1.8,0-2.5,1.2c-5,8.8-12.8,11.6-22.7,10.8
		c-3.4,5.8-8.1,10.8-15.1,11.3c-6.3,0.4-12.2,1.7-18.4,2.7c-9.3,1.6-17.8-2-25.2-7.5c-23.4-17.5-47.3-34.4-67-56.3
		c-0.7-0.8-1.4-1.8-2.7-2.1c-1,2.1-2.1,4.2-3.1,6.3c-1.2,2.6-3.2,3.8-6,3.5c-11-1.4-22-2.8-33-4.4c-3.6-0.5-5.1-2.7-4.6-6.8
		c1.2-10.2,2.5-20.3,3.8-30.5c2.9-22.4,5.9-44.8,8.9-67.2c0.6-4.4,3-6.6,7-5.7c15.3,3.1,30.5,6.4,44.9,12.6c2.9,1.2,5.6,2.6,8.2,4.4
		C106.8,57.4,109.3,59.9,108.1,64.5z M82.9,131.1c1.3,1.7,2.2,3,3.3,4.2c19.4,21.8,43,38.7,66.1,56.2c3.7,2.8,7.8,4.9,12.4,6
		c2.3,0.5,4.7,1.3,7.2-0.1c-8.1-7.8-15.8-15.7-23.3-23.8c-2.6-2.8-2.7-6-0.3-8.3c2.3-2.2,5.7-2.1,8.3,0.6
		c8.9,9.3,17.8,18.6,27.2,27.4c2.7,2.6,4.8,2.6,7.5,1.1c2.4-1.3,4.1-3.3,5-6.5c-0.8-0.6-1.8-1.3-2.7-2.2
		c-7.5-7.6-14.9-15.2-22.3-22.7c-1.6-1.7-2.9-3.5-2.3-6c0.5-2.1,1.7-3.6,3.9-4.2c2.6-0.6,4.5,0.3,6.3,2.2c8.5,9,16.9,18.1,26.2,26.3
		c3.5,3.1,7.4,3.3,11.2,0.2c2.9-2.3,2.8-3.6,0.2-6.2c-9.7-9.7-19.3-19.6-29-29.3c-1.9-2-2.8-4.2-1.7-6.8c0.8-2,2.5-3.1,4.6-3.3
		c2.3-0.2,3.9,1.1,5.5,2.7c9.9,10.2,19.7,20.6,30.1,30.4c2.6,2.4,4.8,3.8,8,1.2c2.9-2.4,3.7-5.5,1.7-9c-1.1-1.9-2.5-3.8-3.9-5.5
		c-4.5-5.3-9.5-9.9-14.8-14.3c-13.5-11.3-27.2-22.4-40.6-33.9c-2.8-2.4-4.7-2.7-8.1-1.4c-5,2-9.4,4.3-13.3,8.3
		c-5.7,5.9-13.2,7.7-21.4,6.9c-12.6-1.4-18.2-9.6-14.9-21.8c1.8-6.5,5.2-12.1,9.1-17.5c1.5-2,3.2-4,5.1-6.4c-9.3,0-18.1,0-26.8,0
		c-1.6,0-2.1,0.8-2.5,2.1C98.1,96.1,90.5,113.9,82.9,131.1z M242.6,150.7c3.1-2.1,5.8-4.1,8.7-5.8c2.3-1.3,2.6-2.6,1.7-5
		c-5.6-14.3-11.6-28.3-17-42.7c-2.9-7.8-7.3-12.3-15.3-14.7c-12.5-3.8-24.3-9.7-36.4-14.7c-10.6-4.3-20.5-2.9-29.5,4.1
		c-5.5,4.3-10.7,9-15.4,14.2c-4.2,4.8-7.7,10.2-9.5,16.4c-1.5,5.2-0.4,6.7,4.9,7.7c7.5,1.3,12.7-2.2,17-7.8c1.2-1.6,2.2-3.8,4.3-4
		c5.6-0.6,10.4-3.3,15.5-5.3c3.1-1.2,5.5-0.4,7.8,1.8c3.9,3.7,7.9,7.2,12,10.7C208.7,120.3,227.4,133.4,242.6,150.7z M237.2,72.9
		c0.7,3.2,2.8,5.4,3.9,8c9.5,23,19.3,45.9,27.6,69.5c0.3,0.9,0.5,2,1.9,2c7.4-0.3,14.9-0.1,22.5-1c-1.1-29.7-2.2-59-3.2-88.7
		C271.5,63.8,254.1,66.8,237.2,72.9z M42.4,138.3c7.6,1,14.8,1.8,21.9,2.8c2,0.3,2.3-1.1,2.8-2.3c8.6-18.7,16.9-37.5,23.8-56.9
		C93,76,95.2,70,96.5,63.6c-13.6-6.6-28-10-42.7-13.2C50,79.9,46.2,108.9,42.4,138.3z"/>
	<path class="st0" d="M257.5-93.6c11.4,0,22.2,0,33.1,0c6.1,0,12.3-0.1,18.4,0c3.7,0.1,5.4,1.7,5.4,5.2c0,39.2,0,78.5,0,117.9
		c-3,0.7-5.9,0.2-9.3,0.3c0-38,0-75.8,0-113.8c-16,0-31.5,0-47.6,0c0,43.2,0,86.5,0,130c-3.3,0-6.1,0-9.3,0c0-57.5,0-115,0-172.6
		c-50.8,0-101.2,0-151.9,0c0,52.1,0,104,0,156.2c-3.2,0-6.1,0-9.4,0c0-28.3,0-56.6,0-85.1c-15.9,0-31.5,0-47.4,0
		c0,28.4,0,56.7,0,85.2c-3.3,0-6.2,0-9.5,0c0-1.2,0-2.3,0-3.3c0-28.1,0-56.2,0-84.4c0-5.9,1.3-7.2,7.3-7.2c16.4,0,32.7,0,49,0
		c1.1-1.4,0.6-2.8,0.6-4.1c0-20,0-40,0-60c0-5.7,1.3-7,7.1-7c52.1,0,104.2,0,156.4,0c5.8,0,7.1,1.3,7.1,7
		C257.5-117.6,257.5-105.9,257.5-93.6z"/>
	<path class="st0" d="M172.3-32c-4.5,0-9,0.1-13.5,0c-3.8-0.1-5.5-1.7-5.6-5.5c-0.1-9-0.1-18,0-27c0-3.7,1.9-5.4,5.7-5.4
		c8.9,0,17.7,0,26.6,0c4,0,5.7,1.7,5.7,5.7c0.1,8.9,0.1,17.7,0,26.6c0,3.8-1.7,5.5-5.5,5.6C181.3-31.9,176.8-32,172.3-32z
		 M162.9-41.6c6.3,0,12.4,0,18.5,0c0-6.3,0-12.5,0-18.5c-6.3,0-12.4,0-18.5,0C162.9-53.9,162.9-47.9,162.9-41.6z"/>
	<path class="st0" d="M219.9-69.9c4.4,0,8.7,0,13.1,0c3.9,0,5.6,1.6,5.6,5.3c0.1,9.1,0,18.2,0,27.3c0,3.4-1.8,5.1-5.1,5.2
		c-9.2,0.1-18.5,0.1-27.7,0c-3.3,0-5.1-1.9-5.1-5.2c-0.1-9.1-0.1-18.2,0-27.3c0-3.8,1.8-5.3,5.7-5.3
		C210.9-69.9,215.4-69.9,219.9-69.9z M210.3-41.6c6.4,0,12.4,0,18.7,0c0-6.2,0-12.3,0-18.5c-6.3,0-12.4,0-18.7,0
		C210.3-53.9,210.3-47.9,210.3-41.6z"/>
	<path class="st0" d="M124.9-69.9c4.4,0,8.7,0,13.1,0c3.9,0,5.7,1.6,5.8,5.3c0.1,9.1,0.1,18.2,0,27.3c0,3.5-2,5.3-5.5,5.3
		c-9,0-18,0.1-27,0c-3.8,0-5.5-1.7-5.6-5.5c-0.1-9-0.1-18,0-27c0-3.7,1.8-5.3,5.6-5.4C115.9-69.9,120.4-69.9,124.9-69.9z
		 M134.1-60.1c-6.3,0-12.4,0-18.5,0c0,6.3,0,12.3,0,18.5c6.2,0,12.3,0,18.5,0C134.1-47.8,134.1-53.8,134.1-60.1z"/>
	<path class="st0" d="M238.6-3.5c0,4.4,0,8.7,0,13.1c0,4.1-1.6,5.9-5.6,5.9c-9,0.1-18,0.1-27,0c-3.5,0-5.4-1.9-5.4-5.3
		c-0.1-9.1-0.1-18.2,0-27.3c0-3.5,1.9-5.3,5.4-5.4c9-0.1,18-0.1,27,0c3.8,0,5.5,1.8,5.5,5.5C238.7-12.5,238.6-8,238.6-3.5z
		 M228.9,5.8c0-6.3,0-12.4,0-18.5c-6.3,0-12.4,0-18.6,0c0,6.2,0,12.3,0,18.5C216.5,5.8,222.6,5.8,228.9,5.8z"/>
	<path class="st0" d="M143.8-3.8c0,4.5,0.1,9,0,13.5c-0.1,4-1.8,5.7-5.8,5.8c-8.9,0.1-17.7,0.1-26.6,0c-3.9,0-5.6-1.8-5.6-5.9
		c-0.1-8.7-0.1-17.5,0-26.2c0-4.2,1.7-5.9,5.9-6c8.7-0.1,17.5-0.1,26.2,0c4.1,0,5.8,1.8,5.9,6C143.9-12.2,143.8-8,143.8-3.8z
		 M134.1,5.8c0-6.4,0-12.4,0-18.5c-6.3,0-12.4,0-18.4,0c0,6.3,0,12.4,0,18.5C121.9,5.8,127.9,5.8,134.1,5.8z"/>
	<path class="st0" d="M191.3-3.1c0,4.2,0.1,8.5,0,12.7c-0.1,4.1-1.8,5.9-6,5.9c-8.7,0.1-17.5,0.1-26.2,0c-4,0-5.8-1.8-5.8-5.7
		c-0.1-8.9-0.1-17.7,0-26.6c0-3.9,1.9-5.7,5.8-5.7c8.7-0.1,17.5-0.1,26.2,0c4.2,0,5.9,1.8,6,5.9C191.3-12.1,191.3-7.6,191.3-3.1z
		 M181.5-12.7c-6.5,0-12.5,0-18.6,0c0,6.3,0,12.3,0,18.3c6.3,0,12.5,0,18.6,0C181.5-0.6,181.5-6.5,181.5-12.7z"/>
	<path class="st0" d="M172-79.5c-4.5,0-9,0-13.5,0c-3.4,0-5.2-1.8-5.2-5c-0.1-9.2-0.1-18.5,0-27.7c0-3.2,1.8-5,5.2-5
		c9.1,0,18.2,0,27.3,0c3.6,0,5.4,1.6,5.4,5.2c0.1,9.1,0.1,18.2,0,27.3c0,3.6-1.8,5.1-5.4,5.2C181.2-79.4,176.6-79.5,172-79.5z
		 M162.9-89.1c6.4,0,12.5,0,18.7,0c0-6.3,0-12.4,0-18.5c-6.3,0-12.4,0-18.7,0C162.9-101.3,162.9-95.4,162.9-89.1z"/>
	<path class="st0" d="M124.7-79.5c-4.4,0-8.7,0-13.1,0c-4.1,0-5.8-1.6-5.8-5.6c-0.1-8.9-0.1-17.7,0-26.6c0-4,1.7-5.6,5.8-5.6
		c8.9,0,17.7,0,26.6,0c3.9,0,5.6,1.6,5.6,5.4c0.1,9,0.1,18,0,27c0,3.8-1.8,5.3-5.6,5.4C133.7-79.4,129.2-79.5,124.7-79.5z
		 M134.1-89.1c0-6.4,0-12.5,0-18.6c-6.3,0-12.3,0-18.5,0c0,6.3,0,12.3,0,18.6C121.8-89.1,127.8-89.1,134.1-89.1z"/>
	<path class="st0" d="M219.7-79.5c-4.5,0-9-0.1-13.5,0c-3.5,0.1-5.5-1.6-5.5-5.1c-0.1-9.2-0.1-18.5,0-27.7c0-3.2,1.8-5,5.2-5
		c9.1,0,18.2,0,27.3,0c3.6,0,5.3,1.6,5.3,5.2c0.1,9.1,0.1,18.2,0,27.3c0,3.6-1.7,5.1-5.4,5.2C228.7-79.4,224.2-79.5,219.7-79.5z
		 M229-107.6c-6.3,0-12.5,0-18.7,0c0,6.3,0,12.3,0,18.5c6.3,0,12.4,0,18.7,0C229-95.4,229-101.4,229-107.6z"/>
	<path class="st0" d="M281.4-74.6c3,0,6,0,9,0c3.3,0,5.1,1.7,5.2,5.1c0.1,6.1,0.1,12.2,0,18.3c0,3.1-1.8,4.9-4.9,4.9
		c-6.2,0.1-12.5,0.1-18.7,0c-3.1-0.1-4.8-1.9-4.8-5.1c-0.1-6.1-0.1-12.2,0-18.3c0-3.1,1.8-4.8,4.9-4.9
		C275.1-74.6,278.3-74.6,281.4-74.6L281.4-74.6z M285.9-65.1c-3.3,0-6.1,0-9,0c-0.3,3.2-0.5,6.2,0.1,9.4c3.1-0.1,6.1,0.4,9-0.3
		C285.9-59.1,285.9-61.9,285.9-65.1z"/>
	<path class="st0" d="M267.1,15.3c0-2.9-0.1-5.7,0-8.6c0.1-3.7,1.7-5.4,5.2-5.5c6.1-0.1,12.2-0.1,18.3,0c3.2,0,4.9,1.8,4.9,4.9
		c0.1,6.1,0.1,12.2,0,18.3c0,3.1-1.8,5-4.8,5.1c-6.2,0.2-12.5,0.2-18.7,0c-3.2-0.1-5-2.1-5-5.4C267.1,21.3,267.1,18.3,267.1,15.3z
		 M285.9,10.8c-3.3,0-6.1,0-9.1,0c-0.3,3.2-0.5,6.2,0.1,9.4c3.1-0.4,6.1,0.4,8.9-0.4C285.9,16.8,285.9,13.9,285.9,10.8z"/>
	<path class="st0" d="M281.3-8.3c-3,0-6,0-9,0c-3.3,0-5.2-1.7-5.2-5c-0.1-6.1-0.1-12.2,0-18.3c0-3.3,2-5,5.2-5.1c6-0.1,12-0.1,18,0
		c3.5,0.1,5.2,1.9,5.2,5.4c0.1,5.9,0.1,11.7,0,17.6c-0.1,3.7-1.8,5.3-5.6,5.4C287-8.3,284.2-8.3,281.3-8.3z M276.8-27.1
		c0,3.2,0,6.2,0,9.1c3.1,0,6.1,0,9.1,0c0.1-3.2,0.3-6.1-0.2-9.1C282.8-27.1,279.9-27.1,276.8-27.1z"/>
	<path class="st0" d="M191.2,46.1c-3.3,0-6.1,0-9.4,0c0-4.2,0-8.4,0-12.8c-6.5,0-12.5,0-19,0c0,4.2,0,8.4,0,12.7c-3.3,0-6.3,0-9.6,0
		c0-6.1-0.2-12,0.1-18c0.1-2.6,1.9-4.3,4.7-4.3c9.5,0,19,0,28.5,0c3,0,4.6,1.9,4.7,4.8C191.3,34.3,191.2,40,191.2,46.1z"/>
	<path class="st0" d="M238.6,46.1c-3.3,0-6.2,0-9.4,0c0-3.9,0-7.7,0-11.6c-6.5,0-12.5,0-19,0c0,3.8,0,7.6,0,11.5c-3.3,0-6.1,0-9.3,0
		c0-5.8-0.2-11.6,0.1-17.4c0.1-2.6,2.4-3.8,4.8-3.8c9.2-0.1,18.5-0.1,27.7,0c3,0,5,1.6,5.1,4.8C238.7,35.1,238.6,40.4,238.6,46.1z"
		/>
	<path class="st0" d="M115.3,34.7c0,3.9,0,7.5,0,11.3c-3.1,0.7-6.1,0.3-9.4,0.3c0-5.8-0.2-11.5,0.1-17.2c0.1-2.7,2.3-4.1,5-4.1
		c9.2-0.1,18.5-0.1,27.7,0c3,0,5,1.7,5.1,4.8c0.2,5.3,0,10.7,0,16.3c-3.2,0-6.1,0-9.4,0c0-3.7,0-7.5,0-11.4
		C127.8,34.7,121.7,34.7,115.3,34.7z"/>
	<path class="st0" d="M82.1-38.8c0,5.7-1.3,6.9-7.2,6.9c-5.9,0-7.1-1.3-7.1-7.4c0-5.7,1.3-6.9,7.6-6.9C81.1-46.1,82.1-45,82.1-38.8z
		"/>
	<path class="st0" d="M74.8,24.9c-5.7,0-7-1.3-7-7.1c0-5.9,1.3-7.2,7.3-7.2c5.8,0,7,1.3,6.9,7.5C82.1,23.9,80.9,24.9,74.8,24.9z"/>
	<path class="st0" d="M74.9,5.9c-5.8,0-7-1.3-7.1-7c0-5.9,1.3-7.3,7.2-7.3c5.7,0,7,1.3,7,7.1C82.1,4.8,81,5.9,74.9,5.9z"/>
	<path class="st0" d="M63.1-38.9c0,5.8-1.2,7-7.1,7s-7.2-1.3-7.2-7.3c0-5.6,1.4-6.9,7.1-6.9C62-46.2,63.1-45.1,63.1-38.9z"/>
	<path class="st0" d="M75-27.2c6,0,7.1,1.1,7.1,7.3c0,5.7-1.3,7-7.1,7c-5.9,0-7.2-1.3-7.1-7.4C67.9-26,69.2-27.2,75-27.2z"/>
	<path class="st0" d="M56,5.9c-5.7,0-7.1-1.3-7.1-7c0-5.9,1.4-7.3,7.3-7.3c5.8,0,7,1.3,7,7.4C63.1,4.8,61.9,5.9,56,5.9z"/>
	<path class="st0" d="M56-27.2c6,0,7.1,1.1,7.1,7.3c0,5.6-1.4,7-7.1,7c-5.8,0-7.2-1.4-7.2-7.4C48.9-25.9,50.2-27.2,56-27.2z"/>
	<path class="st0" d="M63.1,17.8c0,6.1-1,7.1-7.2,7.1c-5.7,0-7-1.3-7-7c0-5.9,1.4-7.2,7.3-7.2C61.9,10.7,63.1,12,63.1,17.8z"/>
</g>
</svg>
