<?xml version="1.0" encoding="utf-8"?>
<!-- Generator: Adobe Illustrator 19.0.0, SVG Export Plug-In . SVG Version: 6.00 Build 0)  -->
<svg version="1.1" id="Capa_1" xmlns="http://www.w3.org/2000/svg" xmlns:xlink="http://www.w3.org/1999/xlink" x="0px" y="0px"
	 viewBox="0 0 307 491" style="enable-background:new 0 0 307 491;" xml:space="preserve">
<style type="text/css">
	.st0{fill-rule:evenodd;clip-rule:evenodd;fill:#FFFFFF;}
	.st1{clip-path:url(#SVGID_2_);fill:none;stroke:#FFFFFF;stroke-width:0.4252;}
	.st2{fill-rule:evenodd;clip-rule:evenodd;fill:#01558D;}
	.st3{fill-rule:evenodd;clip-rule:evenodd;fill:#FEFEFE;}
	.st4{fill-rule:evenodd;clip-rule:evenodd;fill:#E5EEF4;}
</style>
<g>
	<rect x="-75.8" y="-49.3" class="st0" width="459" height="594"/>
	<g>
		<defs>
			<rect id="SVGID_1_" x="-76" y="-50" width="459.8" height="595.9"/>
		</defs>
		<clipPath id="SVGID_2_">
			<use xlink:href="#SVGID_1_"  style="overflow:visible;"/>
		</clipPath>
		<rect x="-75.8" y="-49.3" class="st1" width="459" height="594"/>
	</g>
	<path class="st2" d="M16.3,58.4v378.6c1.2,2.8,0,14.1,11.7,25.8c4.8,4.8,10.6,8.4,17.7,10.3c1.8,0.5,7.2,1.1,8.1,1.5h199.8
		c2.3-1,15-0.5,25.7-11.6c5-5.2,8.2-10.1,10.3-17.6c0.6-2,1-7,1.5-8.1V58.2c-1.5-3.3,0.3-13.1-11.9-25.7
		c-10.7-11.1-23.4-10.6-25.7-11.6H53.8c-0.9,0.4-6.3,1-8.1,1.5c-13.8,3.7-24.3,14.4-28,28.2C17.2,52.4,16.6,57.6,16.3,58.4
		L16.3,58.4z M16.3,58.4"/>
	<path class="st3" d="M23.4,383H284c0.4-2.7,0.1-56.2,0.1-60.5V79.8c0-18.3,2.7-34.5-14.4-46.2c-7.6-5.2-13.7-5.6-24.5-5.6H63
		c-11,0-17,0.1-24.9,5.4c-5.4,3.6-10.6,9.4-13,17.2c-2.5,7.8-1.6,20.1-1.6,28.8V368C23.4,372.1,22.9,379.3,23.4,383L23.4,383z
		 M23.4,383"/>
	<path class="st2" d="M70.8,161.6c-0.1-0.6-3-7-4.5-14.2c-4.3-20.7-0.5-45,10-62.8c2.4-4.1,6.6-8.8,7.2-11.7
		c1.1-5.6-4.2-9.8-9.8-8.9c-5.3,0.8-7.8,5.3-10.2,9.1C40,110.5,42.4,154.3,66,189.6c9.9,14.9,22.7,27.8,38.5,37.4
		c17.9,10.8,36.5,14.9,61.5,14.5c22.6-0.3,43.2-7.9,57.5-18.2c5.6-4.1,13.1-10.3,17.7-15.5c0.4-0.5,0.6-0.8,1-1.2
		c3.8-4.2,6.1-6.8,9.8-11.7c1.4-1.9,7.2-9.4,7.8-11.4c1.6-5.8-0.8-11.4-3.9-14.1c-4.5-3.9-7.6-3.9-14.8-4.1
		c-12.6-0.2-25.3,0.1-38,0.1c-6.2,0-7.3,2.1-11,7.8c-2.6,3.9-5.6,6.8-9.7,9.3c-13,7.6-31.8,8-44.9-1.2
		c-10.4-7.3-18.5-25.8-15.6-40.1c5.9-30,49.4-42.3,69.1-15.6c2.8,3.8,4.7,7.2,6.8,12.2c1.4,3.5,7,7.9,12.2,5.4
		c4.4-2.2,5.3-8.2,3.1-13.7c-5.1-12.8-14.4-23.7-27.1-30.1c-27-13.4-63.4-0.8-76.9,26.5c-3.6,7.3-5.2,15.1-5,23.4
		c0.1,3.2,0.7,5.9,0.9,8.7c-1.9-4.6-2.7-14.2-2.2-19.8c1.3-13.6,7-24.8,16.4-34l3-2.8c2-1.8,4-3.3,6.4-4.9c8.7-5.8,21.5-10.9,35-9.5
		c3.2,0.4,6.9,1.7,9.5,1.8c11.7,0.4,14.9-13,3.5-16.6c-12.2-3.8-27.4-2.5-39,1.5c-8.3,2.9-15.4,6.6-22.1,11.6
		c-11.3,8.4-19.1,18.2-24.7,31.7c-3.7,8.9-5.2,19.1-4.9,28.9c0.1,3.7,0.8,7,1,10.5c-1.7-2.9-2.8-14.1-2.9-18.3
		c-0.4-18.1,5.9-35,16.6-47.8c5.8-7,13.7-14.4,23.4-19.3c2.6-1.3,4.7-2.1,7.5-3.2c8.9-3.6,4.6-19.2-5.7-15.9
		C116,55,105,62.3,98.6,67.5c-16.5,13.5-27,33.1-30.2,55.6c-1.4,10-1.3,19.9,0.5,29.9C69.4,155.9,70.4,159.1,70.8,161.6L70.8,161.6z
		 M70.8,161.6"/>
	<path class="st2" d="M113.3,303.6c-7.2,1.9-9.9,9.8-9.2,18.7c0.6,7.7,5.4,15.6,14.1,13.6C132.6,332.6,130,299.1,113.3,303.6
		L113.3,303.6z M113.3,303.6"/>
	<path class="st2" d="M200.2,303.6c-3.7,1.1-5.4,3.2-6.7,6.9c-2.3,6-2.1,17,2,22.1c5.6,7.1,19.5,4.6,17.8-15.8
		C212.6,309.1,208.3,301.1,200.2,303.6L200.2,303.6z M200.2,303.6"/>
	<path class="st2" d="M176.5,303.4c-7.3,1.4-9.3,10-8.9,18.2c0.4,7.7,3.8,16,12.5,14.4c7-1.3,9.2-10.2,8.8-18.2
		C188.4,310.2,184.9,301.8,176.5,303.4L176.5,303.4z M176.5,303.4"/>
	<path class="st2" d="M158.6,321.8c0.2,10.7-8.5,11.6-9.8,6l-5.4,0c0.4,10.4,13.7,10.6,18,3.9c3.9-6.1,3.7-19.6-0.7-25
		c-4.7-5.8-16.9-4.7-17.7,6.7c-0.6,8,4.8,13.3,11.1,11.9C156.6,324.6,157.3,323.1,158.6,321.8L158.6,321.8z M158.6,321.8"/>
	<path class="st3" d="M155.6,411.3c-15.2,2.8-11.4,25.9,4,23.3c5.8-1,10.7-6.6,9.6-13.6C168.3,415.3,162.6,410.1,155.6,411.3
		L155.6,411.3z M155.6,411.3"/>
	<path class="st3" d="M230.9,427.1c-6.4,0-4.8-0.4-6.5,1.2c-0.5,0.4-0.9,0.7-1.5,1c-3.2,1.5-8.7,0.4-9-4.6l17.9,0
		c1.2-15.7-19.4-18.1-22.9-4.7c-2.7,10.3,8,18.2,16.8,13.5C227.6,432.4,230.2,429.9,230.9,427.1L230.9,427.1z M230.9,427.1"/>
	<path class="st2" d="M86.2,325.7l-4.7,0c0.2,6.4,3.8,10.8,10.5,10.4c6.1-0.4,10-5.4,8.6-12.3c-1.4-6.9-8.6-6.3-11.8-8.8
		c-2.3-1.8-1.8-5.7,0.8-6.7c3.4-1.3,5.3,1.5,5.7,4.3h5.1c-0.7-12.1-13.9-11.5-17.2-4.8c-1.3,2.5-1.1,6.4,0.1,8.8
		c2.6,5.3,10.9,4.5,12.3,8.5c1.3,3.4-1.2,6.2-4.2,6.2C86.4,331.3,87.4,326.5,86.2,325.7L86.2,325.7z M86.2,325.7"/>
	<path class="st3" d="M65.6,426c-0.4,1.3-0.3,14.5-0.2,17.6c0,2.5,0.9,2.9,2,4.1c5.8,5.9,7.8,8.7,14.5,2c5-5.1,5.4-2.9-4.1-12.4
		l-8.9-8.9C68.1,427.7,66.8,426,65.6,426L65.6,426z M65.6,426"/>
	<path class="st3" d="M85.7,431.2c0.4-2,0.2-13.9,0.2-17.5c0-2.6-0.6-2.8-1.9-4.1c-1.4-1.4-4.3-4.9-6.4-5.6c-4.6-1.6-7.5,2.7-11,6.1
		c-1.6,1.6-0.7,2,0.7,3.4c3.8,3.7,13,12.7,16.5,16.5C84.5,430.8,84.6,431.1,85.7,431.2L85.7,431.2z M85.7,431.2"/>
	<path class="st3" d="M256.7,426l-5.5,0c-3.3,6.6-11.9,3.7-12.1-2.8c-0.2-7.9,9.6-9.2,12.1-3.5l5.6,0c-0.7-5.3-6.5-9.5-12.8-8.6
		c-13.5,1.9-13.5,21.8,0,23.6C250.1,435.5,256.1,431.5,256.7,426L256.7,426z M256.7,426"/>
	<path class="st3" d="M177.7,414.1l0-2.2l-5.1,0v22.3l5,0.1c0-3.7-0.1-7.6,0.1-11.3c0.2-3.4,1-6.3,4.6-6.4c4-0.1,4.6,2.6,4.8,6.4
		c0.2,3.7,0,7.7,0,11.4l5.2,0c0.1-9.7,2.1-21.7-7.3-22.8C179.7,410.8,178.8,413.8,177.7,414.1L177.7,414.1z M177.7,414.1"/>
	<path class="st3" d="M143.4,426.1l-5.3-0.1c-0.6,0.7-2,4.6-7.3,3.5c-6.5-1.4-6.4-11.4-0.4-13c5.3-1.4,7.1,3.1,7.9,3.3h5.1
		c-2.6-13.1-23.4-10.6-22.9,3.6c0.2,6,4.8,10.7,10.4,11.3C137.4,435.4,142.7,431.3,143.4,426.1L143.4,426.1z M143.4,426.1"/>
	<path class="st3" d="M114.5,308.3c-4.9,1.5-5.3,8.6-5.1,13c0.2,4.7,2.3,11.5,7.8,9.8C124.6,328.8,123.7,305.5,114.5,308.3
		L114.5,308.3z M114.5,308.3"/>
	<path class="st2" d="M220.1,308.6l4.9,0l0.1,27l5.3,0.1c0.6-2.1,0.3-27.8,0.1-31.9h-10.4L220.1,308.6z M220.1,308.6"/>
	<path class="st3" d="M201.6,308.6c-4.2,1.6-4.3,8.6-4.1,12.5c0.1,4.1,1.4,11.4,6.3,9.8C210,328.8,209.3,305.7,201.6,308.6
		L201.6,308.6z M201.6,308.6"/>
	<path class="st3" d="M177.2,308.6c-1.2,0.4-1.6,0.7-2.3,1.8c-3.2,4.8-2.8,23,4.5,20.5C185.4,328.8,184.9,305.8,177.2,308.6
		L177.2,308.6z M177.2,308.6"/>
	<path class="st3" d="M198.5,411.8l-3.3,0.1l-0.1,4.5l3.4,0.1l0,17.7l5.2,0.1l0-17.8l3.4-0.1l0-4.6l-3.4-0.1l0-8l-5.1,0L198.5,411.8
		z M198.5,411.8"/>
	<path class="st3" d="M89.3,441.8c1.1-0.3,2.5-2.1,3.3-2.9l6-6c1.1-1.1,1.9-2.2,1.9-4.2c0-3.3-3.3-5.8-4.8-7.3
		c-1.1-1.1-5.1-5.6-6.3-5.9C89.1,417.2,89.2,438.7,89.3,441.8L89.3,441.8z M89.3,441.8"/>
	<path class="st3" d="M61.8,441.8c0.1-3.2,0.2-24.6-0.1-26.3c-1.1,0.3-5.1,4.7-6.1,5.8c-2,2-8,6.8-3.2,11.5
		C54.1,434.6,60.6,441.4,61.8,441.8L61.8,441.8z M61.8,441.8"/>
	<path class="st2" d="M71.4,335.6l5.5,0l0-31.8l-5.4-0.1L71.4,335.6z M71.4,335.6"/>
	<path class="st2" d="M155.5,416.7c-7.7,2.6-4.5,15.5,4.3,12.7C167,427,164.2,413.7,155.5,416.7L155.5,416.7z M155.5,416.7"/>
	<path class="st3" d="M111.4,434.1l1,0.1l3.5,0l1.1,0l0-22.4l-5.6,0L111.4,434.1z M111.4,434.1"/>
	<path class="st3" d="M183.8,452.6l0.3,0.5c0.6,0.5,1,0.4,2.1,0.3l0-9.5c-2.1-0.2-1.9,0-2.4,0.5c0,0-0.1,0.1-0.1,0.2
		c-2.7-2.7-7.6-0.1-7.7,4C176.1,452.9,181.5,455.4,183.8,452.6L183.8,452.6z M183.8,452.6"/>
	<path class="st3" d="M247.2,452.6l0.3,0.5c0.6,0.5,0.7,0.4,2.1,0.4l0-9.6c-2.7,0-1.9-0.1-2.3,0.9c-2.8-2.8-7.7-0.5-7.8,3.6
		C239.3,453.3,245.3,455.3,247.2,452.6L247.2,452.6z M247.2,452.6"/>
	<path class="st3" d="M152.3,308.5c-2.7,0.7-3.9,3.4-3.5,6.8c0.3,3,2.2,5.6,5.8,4.7C159.7,318.7,158.9,306.8,152.3,308.5
		L152.3,308.5z M152.3,308.5"/>
	<path class="st3" d="M215.7,443.8c-6.4,1.7-4.1,11.5,2.7,9.8c2.2-0.6,4.2-3.2,3.4-6.2C221.2,445,218.7,443,215.7,443.8L215.7,443.8
		z M215.7,443.8"/>
	<path class="st4" d="M149.8,450.5c-3.6-0.3-1.9,0.7-4.1,1.1c-1.9,0.3-2.9-0.6-3.2-2.1l0-2c0.1-0.6,0.5-0.9,1-1.4
		c1.2-0.7,2.1-0.6,3.3-0.1c0.6,0.4,1,0.9,1.2,1.5l-5.5,0l0,2l7.6,0c0.4-6.9-8.2-7.8-9.8-2.2C138.6,453.6,147.9,456.5,149.8,450.5
		L149.8,450.5z M149.8,450.5"/>
	<path class="st3" d="M121.1,444.6c0,0-0.1-0.2-0.1-0.2l-0.7-0.6c-0.5-0.2-1.1,0-1.6,0l0,9.5l2,0c0.1-2.4-0.6-7.2,1.9-7.6
		c1.8-0.2,2.1,0.9,2.3,2.5c0.1,1.6,0,3.4,0,5l2.2,0.1c0-2,0.3-6.4-0.4-7.9C125.7,443.5,122.9,443,121.1,444.6L121.1,444.6z
		 M121.1,444.6"/>
	<path class="st3" d="M200.5,450l-2.2,0c-0.8,1.1-1.6,2.1-3.6,1.3c-2.6-1-2-6.2,1.8-5.4c2.2,0.5,0.1,1.5,3.9,1.4
		c0-4.9-9.7-5.2-9.7,1.4C190.8,454.9,199.9,455.4,200.5,450L200.5,450z M200.5,450"/>
	<path class="st3" d="M229.1,444.7c0-0.1-0.1-0.2-0.1-0.2c0,0-0.1-0.1-0.1-0.2c-1.1-1,0.5,0.3-0.3-0.3c-0.6-0.4-0.8-0.2-2-0.2
		c-0.1,2.1-0.1,7.6,0.1,9.6l2,0c0.5-2.4-0.9-7.3,1.9-7.6c3.2-0.3,2.2,5.1,2.3,7.5l2.2,0c0-3.1,0.5-7.7-1.5-9.1
		C232.1,443.3,229.9,443.5,229.1,444.7L229.1,444.7z M229.1,444.7"/>
	<path class="st3" d="M165.5,444.8c-0.3-1,0.4-0.9-2.2-0.9l-0.1,9.6l2.1,0c0-2.3-0.9-7.4,2-7.6c3.2-0.2,1.8,5.4,2.2,7.6l2,0
		c0.3-1.8,0.3-6.8-0.4-8.1C170,443.4,167.1,443.1,165.5,444.8L165.5,444.8z M165.5,444.8"/>
	<path class="st2" d="M214.1,420.5l12,0C224.7,414.4,215.2,414.6,214.1,420.5L214.1,420.5z M214.1,420.5"/>
	<path class="st3" d="M132.9,443.4c-0.6,1-1.9-0.2-1.5,2c0.2,1,1.2-0.2,1.5,1v7l2.2,0.1l0-7.1c0.2-1.3,2,0.4,1.5-2
		c-0.2-1.1-1.3,0-1.5-1l0-2.8l-2.2,0L132.9,443.4z M132.9,443.4"/>
	<path class="st3" d="M113.3,404c-1.5,0.6-2.8,1.8-2.1,4.1c0.5,1.3,2.2,2.6,4.1,1.8C119.3,408.4,117,402.6,113.3,404L113.3,404z
		 M113.3,404"/>
	<path class="st3" d="M154.6,453.4l2.2,0.1c0-1.8-0.4-6,0.6-7c1.4-1.4,1.8,0.7,1.8-2.7c-1.2,0.1-1.5,0.1-2.1,0.9
		c-0.6-0.6-0.2-1-2.5-0.8L154.6,453.4z M154.6,453.4"/>
	<path class="st2" d="M215.9,446c-2.9,1.2-1.8,6.5,2,5.3C221,450.5,219.8,444.4,215.9,446L215.9,446z M215.9,446"/>
	<path class="st2" d="M180.1,446.1c-3.6,1.8-1,6.5,2.2,5C185.4,449.8,183.3,444.6,180.1,446.1L180.1,446.1z M180.1,446.1"/>
	<path class="st2" d="M243.6,446c-3.3,1.1-1.9,6.2,1.5,5.3C248.4,450.6,247.2,444.8,243.6,446L243.6,446z M243.6,446"/>
	<path class="st3" d="M111.4,453.5l2,0l0.1-9.5l-2.2,0L111.4,453.5z M111.4,453.5"/>
	<path class="st3" d="M111.3,453.4l0.4,0l1.5,0l0.5,0l0-9.6l-2.4,0V453.4z M111.3,453.4"/>
	<path class="st3" d="M112.1,440.5c-0.6,0.2-1.2,0.8-0.9,1.8c0.2,0.6,0.9,1.1,1.8,0.8C114.7,442.4,113.7,439.9,112.1,440.5
		L112.1,440.5z M112.1,440.5"/>
	<path class="st3" d="M254.2,453.5l0.4,0.1l1.5,0l0.5,0l0-12.9l-2.4,0V453.5z M254.2,453.5"/>
	<path class="st3" d="M205.6,440.5c-0.6,0.2-1.2,0.8-0.9,1.8c0.2,0.6,1,1.1,1.8,0.8C208.1,442.4,207.2,439.9,205.6,440.5
		L205.6,440.5z M205.6,440.5"/>
	<path class="st3" d="M204.9,453.4l0.4,0l1.5,0l0.5,0l0-9.6l-2.4,0V453.4z M204.9,453.4"/>
</g>
</svg>
