<?xml version="1.0" encoding="utf-8"?>
<!-- Generator: Adobe Illustrator 19.0.0, SVG Export Plug-In . SVG Version: 6.00 Build 0)  -->
<svg version="1.1" id="Capa_1" xmlns="http://www.w3.org/2000/svg" xmlns:xlink="http://www.w3.org/1999/xlink" x="0px" y="0px"
	 viewBox="144 -220 512 512" style="enable-background:new 144 -220 512 512;" xml:space="preserve">
<style type="text/css">
	.st0{fill:#FFFFFF;}
</style>
<g id="Out_line">
	<path class="st0" d="M440-24.7l30.3,30.3c9.8,9.7,25.6,9.7,35.3,0l84-84c3.1-3.1,3.1-8.2,0-11.3l-112-112c-3.1-3.1-8.2-3.1-11.3,0
		L408-143.3l-30.3-30.3c-9.8-9.7-25.6-9.7-35.3,0L264-95.3l-18.3-18.3c-3.1-3.1-8.2-3.1-11.3,0l-24,24c-3.1,3.1-3.1,8.2,0,11.3
		L364.7,76l-10.3,10.3c-1.5,1.5-2.3,3.5-2.3,5.7v44.7l-8,8l-2.3-2.3c-3.1-3.1-8.2-3.1-11.3,0l-120,120l11.3,11.3L336,159.3
		l76.7,76.7l-26.3,26.3l11.3,11.3l32-32c3.1-3.1,3.1-8.2,0-11.3L419.3,220l44.7-44.7l74.3,74.3c3.1,3.1,8.2,3.1,11.3,0l24-24
		c3.1-3.1,3.1-8.2,0-11.3L499.3,140l10.3-10.3c3.1-3.1,3.1-8.2,0-11.3l-64-64c-3.1-3.1-8.2-3.1-11.3,0l-0.7,0.7
		c-1.1-9.4-5.3-18.1-12-24.7c-3.1-3.1-8.2-3.1-11.3,0L400,40.7L387.3,28L440-24.7z M478.3-37.7l-8,8c-2.2,2.2-3.9,4.7-5.2,7.5
		L451.3-36l14.3-14.3c3.5-3.5,9.2-3.5,12.7,0S481.8-41.2,478.3-37.7L478.3-37.7z M472-184.7L572.7-84L494.3-5.7
		c-3.5,3.5-9.2,3.5-12.7,0s-3.5-9.2,0-12.7l8-8c9.8-9.8,9.8-25.6,0-35.3L419.3-132L472-184.7z M353.7-162.3c3.5-3.5,9.2-3.5,12.7,0
		l95.5,95.5c-2.8,1.2-5.4,3-7.5,5.2L352,40.7L251.3-60L353.7-162.3z M240-96.7L252.7-84L240-71.3L227.3-84L240-96.7z M556.7,220
		L544,232.7L475.3,164l12.7-12.7L556.7,220z M440,71.3l52.7,52.7L464,152.7L411.3,100l10.3-10.3l0,0l0,0L440,71.3z M415.1,48.2
		c5.1,10,3.2,22.2-4.8,30.1l-16,16c-3.1,3.1-3.1,8.2,0,11.3c14.5,14.6,14.5,38.1,0,52.7l11.3,11.3c9.9-9.9,15.4-23.2,15.6-37.1
		l31.5,31.5L408,208.7L355.3,156l10.3-10.3c1.5-1.5,2.3-3.5,2.3-5.7V95.3L415.1,48.2z M388.7,52L376,64.7L363.3,52L376,39.3
		L388.7,52z"/>
</g>
</svg>
