<?xml version="1.0" encoding="utf-8"?>
<!-- Generator: Adobe Illustrator 19.0.0, SVG Export Plug-In . SVG Version: 6.00 Build 0)  -->
<svg version="1.1" id="Capa_1" xmlns="http://www.w3.org/2000/svg" xmlns:xlink="http://www.w3.org/1999/xlink" x="0px" y="0px"
	 viewBox="42 -209 307 491" style="enable-background:new 42 -209 307 491;" xml:space="preserve">
<style type="text/css">
	.st0{fill:#FFFFFF;}
	.st1{clip-path:url(#SVGID_2_);fill:none;stroke:#FFFFFF;stroke-width:0.4252;}
	.st2{fill:#01558D;}
	.st3{fill:#FEFEFE;}
	.st4{fill:#E5EEF4;}
	.st5{fill:none;}
	.st6{font-family:'Muro-Regular';}
	.st7{font-size:36px;}
</style>
<g>
	<rect x="-29.4" y="-255.8" class="st0" width="459" height="594"/>
	<g>
		<g>
			<g>
				<defs>
					<rect id="SVGID_1_" x="-29.6" y="-256.5" width="459.8" height="595.9"/>
				</defs>
				<clipPath id="SVGID_2_">
					<use xlink:href="#SVGID_1_"  style="overflow:visible;"/>
				</clipPath>
				<rect x="-29.4" y="-255.8" class="st1" width="459" height="594"/>
			</g>
		</g>
	</g>
	<path class="st2" d="M62.7-148.1v378.6c1.2,2.8,0,14.1,11.7,25.8c4.8,4.8,10.6,8.4,17.7,10.3c1.8,0.5,7.2,1.1,8.1,1.5H300
		c2.3-1,15-0.5,25.7-11.6c5-5.2,8.2-10.1,10.3-17.6c0.6-2,1-7,1.5-8.1v-379.1c-1.5-3.3,0.3-13.1-11.9-25.7
		c-10.7-11.1-23.4-10.6-25.7-11.6H100.2c-0.9,0.4-6.3,1-8.1,1.5c-13.8,3.7-24.3,14.4-28,28.2C63.6-154.1,63-148.9,62.7-148.1
		L62.7-148.1z"/>
	<path class="st3" d="M69.8,176.5h260.6c0.4-2.7,0.1-56.2,0.1-60.5v-242.7c0-18.3,2.7-34.5-14.4-46.2c-7.6-5.2-13.7-5.6-24.5-5.6
		H109.4c-11,0-17,0.1-24.9,5.4c-5.4,3.6-10.6,9.4-13,17.2c-2.5,7.8-1.6,20.1-1.6,28.8v288.6C69.8,165.6,69.3,172.8,69.8,176.5
		L69.8,176.5z"/>
	<path class="st2" d="M117.2-44.9c-0.1-0.6-3-7-4.5-14.2c-4.3-20.7-0.5-45,10-62.8c2.4-4.1,6.6-8.8,7.2-11.7
		c1.1-5.6-4.2-9.8-9.8-8.9c-5.3,0.8-7.8,5.3-10.2,9.1C86.4-96,88.8-52.2,112.4-16.9c9.9,14.9,22.7,27.8,38.5,37.4
		c17.9,10.8,36.5,14.9,61.5,14.5c22.6-0.3,43.2-7.9,57.5-18.2c5.6-4.1,13.1-10.3,17.7-15.5c0.4-0.5,0.6-0.8,1-1.2
		c3.8-4.2,6.1-6.8,9.8-11.7c1.4-1.9,7.2-9.4,7.8-11.4c1.6-5.8-0.8-11.4-3.9-14.1c-4.5-3.9-7.6-3.9-14.8-4.1
		c-12.6-0.2-25.3,0.1-38,0.1c-6.2,0-7.3,2.1-11,7.8c-2.6,3.9-5.6,6.8-9.7,9.3c-13,7.6-31.8,8-44.9-1.2
		c-10.4-7.3-18.5-25.8-15.6-40.1c5.9-30,49.4-42.3,69.1-15.6c2.8,3.8,4.7,7.2,6.8,12.2c1.4,3.5,7,7.9,12.2,5.4
		c4.4-2.2,5.3-8.2,3.1-13.7c-5.1-12.8-14.4-23.7-27.1-30.1c-27-13.4-63.4-0.8-76.9,26.5c-3.6,7.3-5.2,15.1-5,23.4
		c0.1,3.2,0.7,5.9,0.9,8.7c-1.9-4.6-2.7-14.2-2.2-19.8c1.3-13.6,7-24.8,16.4-34l3-2.8c2-1.8,4-3.3,6.4-4.9c8.7-5.8,21.5-10.9,35-9.5
		c3.2,0.4,6.9,1.7,9.5,1.8c11.7,0.4,14.9-13,3.5-16.6c-12.2-3.8-27.4-2.5-39,1.5c-8.3,2.9-15.4,6.6-22.1,11.6
		c-11.3,8.4-19.1,18.2-24.7,31.7c-3.7,8.9-5.2,19.1-4.9,28.9c0.1,3.7,0.8,7,1,10.5c-1.7-2.9-2.8-14.1-2.9-18.3
		c-0.4-18.1,5.9-35,16.6-47.8c5.8-7,13.7-14.4,23.4-19.3c2.6-1.3,4.7-2.1,7.5-3.2c8.9-3.6,4.6-19.2-5.7-15.9
		c-9.8,3.1-20.8,10.4-27.2,15.6c-16.5,13.5-27,33.1-30.2,55.6c-1.4,10-1.3,19.9,0.5,29.9C115.8-50.6,116.8-47.4,117.2-44.9
		L117.2-44.9z"/>
	<path class="st3" d="M202,204.8c-15.2,2.8-11.4,25.9,4,23.3c5.8-1,10.7-6.6,9.6-13.6C214.7,208.8,209,203.6,202,204.8L202,204.8z"
		/>
	<path class="st3" d="M277.3,220.6c-6.4,0-4.8-0.4-6.5,1.2c-0.5,0.4-0.9,0.7-1.5,1c-3.2,1.5-8.7,0.4-9-4.6h17.9
		c1.2-15.7-19.4-18.1-22.9-4.7c-2.7,10.3,8,18.2,16.8,13.5C274,225.9,276.6,223.4,277.3,220.6L277.3,220.6z"/>
	<path class="st3" d="M112,219.5c-0.4,1.3-0.3,14.5-0.2,17.6c0,2.5,0.9,2.9,2,4.1c5.8,5.9,7.8,8.7,14.5,2c5-5.1,5.4-2.9-4.1-12.4
		l-8.9-8.9C114.5,221.2,113.2,219.5,112,219.5L112,219.5z"/>
	<path class="st3" d="M132.1,224.7c0.4-2,0.2-13.9,0.2-17.5c0-2.6-0.6-2.8-1.9-4.1c-1.4-1.4-4.3-4.9-6.4-5.6
		c-4.6-1.6-7.5,2.7-11,6.1c-1.6,1.6-0.7,2,0.7,3.4c3.8,3.7,13,12.7,16.5,16.5C130.9,224.3,131,224.6,132.1,224.7L132.1,224.7z"/>
	<path class="st3" d="M303.1,219.5h-5.5c-3.3,6.6-11.9,3.7-12.1-2.8c-0.2-7.9,9.6-9.2,12.1-3.5h5.6c-0.7-5.3-6.5-9.5-12.8-8.6
		c-13.5,1.9-13.5,21.8,0,23.6C296.5,229,302.5,225,303.1,219.5L303.1,219.5z"/>
	<path class="st3" d="M224.1,207.6v-2.2H219v22.3l5,0.1c0-3.7-0.1-7.6,0.1-11.3c0.2-3.4,1-6.3,4.6-6.4c4-0.1,4.6,2.6,4.8,6.4
		c0.2,3.7,0,7.7,0,11.4h5.2c0.1-9.7,2.1-21.7-7.3-22.8C226.1,204.3,225.2,207.3,224.1,207.6L224.1,207.6z"/>
	<path class="st3" d="M189.8,219.6l-5.3-0.1c-0.6,0.7-2,4.6-7.3,3.5c-6.5-1.4-6.4-11.4-0.4-13c5.3-1.4,7.1,3.1,7.9,3.3h5.1
		c-2.6-13.1-23.4-10.6-22.9,3.6c0.2,6,4.8,10.7,10.4,11.3C183.8,228.9,189.1,224.8,189.8,219.6L189.8,219.6z"/>
	<path class="st3" d="M244.9,205.3l-3.3,0.1l-0.1,4.5l3.4,0.1v17.7l5.2,0.1V210l3.4-0.1v-4.6l-3.4-0.1v-8H245L244.9,205.3z"/>
	<path class="st3" d="M135.7,235.3c1.1-0.3,2.5-2.1,3.3-2.9l6-6c1.1-1.1,1.9-2.2,1.9-4.2c0-3.3-3.3-5.8-4.8-7.3
		c-1.1-1.1-5.1-5.6-6.3-5.9C135.5,210.7,135.6,232.2,135.7,235.3L135.7,235.3z"/>
	<path class="st3" d="M108.2,235.3c0.1-3.2,0.2-24.6-0.1-26.3c-1.1,0.3-5.1,4.7-6.1,5.8c-2,2-8,6.8-3.2,11.5
		C100.5,228.1,107,234.9,108.2,235.3L108.2,235.3z"/>
	<path class="st2" d="M201.9,210.2c-7.7,2.6-4.5,15.5,4.3,12.7C213.4,220.5,210.6,207.2,201.9,210.2L201.9,210.2z"/>
	<path class="st3" d="M157.8,227.6l1,0.1h3.5h1.1v-22.4h-5.6V227.6z"/>
	<path class="st3" d="M230.2,246.1l0.3,0.5c0.6,0.5,1,0.4,2.1,0.3v-9.5c-2.1-0.2-1.9,0-2.4,0.5c0,0-0.1,0.1-0.1,0.2
		c-2.7-2.7-7.6-0.1-7.7,4C222.5,246.4,227.9,248.9,230.2,246.1L230.2,246.1z"/>
	<path class="st3" d="M293.6,246.1l0.3,0.5c0.6,0.5,0.7,0.4,2.1,0.4v-9.6c-2.7,0-1.9-0.1-2.3,0.9c-2.8-2.8-7.7-0.5-7.8,3.6
		C285.7,246.8,291.7,248.8,293.6,246.1L293.6,246.1z"/>
	<path class="st3" d="M262.1,237.3c-6.4,1.7-4.1,11.5,2.7,9.8c2.2-0.6,4.2-3.2,3.4-6.2C267.6,238.5,265.1,236.5,262.1,237.3
		L262.1,237.3z"/>
	<path class="st4" d="M196.2,244c-3.6-0.3-1.9,0.7-4.1,1.1c-1.9,0.3-2.9-0.6-3.2-2.1v-2c0.1-0.6,0.5-0.9,1-1.4
		c1.2-0.7,2.1-0.6,3.3-0.1c0.6,0.4,1,0.9,1.2,1.5h-5.5v2h7.6c0.4-6.9-8.2-7.8-9.8-2.2C185,247.1,194.3,250,196.2,244L196.2,244z"/>
	<path class="st3" d="M167.5,238.1l-0.1-0.2l-0.7-0.6c-0.5-0.2-1.1,0-1.6,0v9.5h2c0.1-2.4-0.6-7.2,1.9-7.6c1.8-0.2,2.1,0.9,2.3,2.5
		c0.1,1.6,0,3.4,0,5l2.2,0.1c0-2,0.3-6.4-0.4-7.9C172.1,237,169.3,236.5,167.5,238.1L167.5,238.1z"/>
	<path class="st3" d="M246.9,243.5h-2.2c-0.8,1.1-1.6,2.1-3.6,1.3c-2.6-1-2-6.2,1.8-5.4c2.2,0.5,0.1,1.5,3.9,1.4
		c0-4.9-9.7-5.2-9.7,1.4C237.2,248.4,246.3,248.9,246.9,243.5L246.9,243.5z"/>
	<path class="st3" d="M275.5,238.2c0-0.1-0.1-0.2-0.1-0.2s-0.1-0.1-0.1-0.2c-1.1-1,0.5,0.3-0.3-0.3c-0.6-0.4-0.8-0.2-2-0.2
		c-0.1,2.1-0.1,7.6,0.1,9.6h2c0.5-2.4-0.9-7.3,1.9-7.6c3.2-0.3,2.2,5.1,2.3,7.5h2.2c0-3.1,0.5-7.7-1.5-9.1
		C278.5,236.8,276.3,237,275.5,238.2L275.5,238.2z"/>
	<path class="st3" d="M211.9,238.3c-0.3-1,0.4-0.9-2.2-0.9l-0.1,9.6h2.1c0-2.3-0.9-7.4,2-7.6c3.2-0.2,1.8,5.4,2.2,7.6h2
		c0.3-1.8,0.3-6.8-0.4-8.1C216.4,236.9,213.5,236.6,211.9,238.3L211.9,238.3z"/>
	<path class="st2" d="M260.5,214h12C271.1,207.9,261.6,208.1,260.5,214L260.5,214z"/>
	<path class="st3" d="M179.3,236.9c-0.6,1-1.9-0.2-1.5,2c0.2,1,1.2-0.2,1.5,1v7l2.2,0.1v-7.1c0.2-1.3,2,0.4,1.5-2
		c-0.2-1.1-1.3,0-1.5-1v-2.8h-2.2V236.9z"/>
	<path class="st3" d="M159.7,197.5c-1.5,0.6-2.8,1.8-2.1,4.1c0.5,1.3,2.2,2.6,4.1,1.8C165.7,201.9,163.4,196.1,159.7,197.5
		L159.7,197.5z"/>
	<path class="st3" d="M201,246.9l2.2,0.1c0-1.8-0.4-6,0.6-7c1.4-1.4,1.8,0.7,1.8-2.7c-1.2,0.1-1.5,0.1-2.1,0.9
		c-0.6-0.6-0.2-1-2.5-0.8V246.9z"/>
	<path class="st2" d="M262.3,239.5c-2.9,1.2-1.8,6.5,2,5.3C267.4,244,266.2,237.9,262.3,239.5L262.3,239.5z"/>
	<path class="st2" d="M226.5,239.6c-3.6,1.8-1,6.5,2.2,5C231.8,243.3,229.7,238.1,226.5,239.6L226.5,239.6z"/>
	<path class="st2" d="M290,239.5c-3.3,1.1-1.9,6.2,1.5,5.3C294.8,244.1,293.6,238.3,290,239.5L290,239.5z"/>
	<path class="st3" d="M157.8,247h2l0.1-9.5h-2.2L157.8,247z"/>
	<path class="st3" d="M157.7,246.9h0.4h1.5h0.5v-9.6h-2.4V246.9z"/>
	<path class="st3" d="M158.5,234c-0.6,0.2-1.2,0.8-0.9,1.8c0.2,0.6,0.9,1.1,1.8,0.8C161.1,235.9,160.1,233.4,158.5,234L158.5,234z"
		/>
	<path class="st3" d="M300.6,247l0.4,0.1h1.5h0.5v-12.9h-2.4V247L300.6,247z"/>
	<path class="st3" d="M252,234c-0.6,0.2-1.2,0.8-0.9,1.8c0.2,0.6,1,1.1,1.8,0.8C254.5,235.9,253.6,233.4,252,234L252,234z"/>
	<path class="st3" d="M251.3,246.9h0.4h1.5h0.5v-9.6h-2.4V246.9z"/>
</g>
<rect x="139" y="-150" class="st5" width="197" height="98"/>
<text transform="matrix(1.6115 0 0 1 106.2422 90)" class="st2 st6 st7">OHSAS</text>
<text transform="matrix(1.6115 0 0 1 116.8774 127)" class="st2 st6 st7">18001</text>
</svg>
