<?xml version="1.0" encoding="utf-8"?>
<!-- Generator: Adobe Illustrator 19.0.0, SVG Export Plug-In . SVG Version: 6.00 Build 0)  -->
<svg version="1.1" id="outline" xmlns="http://www.w3.org/2000/svg" xmlns:xlink="http://www.w3.org/1999/xlink" x="0px" y="0px"
	 viewBox="144 -220 512 512" style="enable-background:new 144 -220 512 512;" xml:space="preserve">
<style type="text/css">
	.st0{fill:#142850;}
</style>
<title>vision-strategy-mission-objective-forecast</title>
<rect x="248" y="-108" class="st0" width="32" height="16"/>
<circle class="st0" cx="264" cy="-76" r="8"/>
<path class="st0" d="M576-140h-72c-15.6,0-30.6,5.7-42.3,16H408c-13.6,0-26.6,5.8-35.7,16H368v-32c0-35.3-28.7-64-64-64h-24
	c-10.1,0-19.6,4.8-25.6,12.8c-4.1-3.1-9.2-4.8-14.4-4.8c-17.7,0-32,14.3-32,32v112c0,16,4.8,31.7,13.8,44.9l-35.5,22.2
	c-16.4,10.2-26.4,28.2-26.3,47.5V268c0,4.4,3.6,8,8,8h240c4.4,0,8-3.6,8-8v-88h13.1c39.3-0.1,75.7-20.7,96-54.4l41.5-69.2l25.9-36.2
	c8.6-11.9,13.8-26,15.1-40.6c30.7-17.5,41.5-56.5,24-87.2C620.3-127.7,599-140,576-140z M504-124h29.7
	c-26.5,23.3-29.1,63.6-5.9,90.1c1.8,2.1,3.8,4,5.9,5.9H504c-26.5,0-48-21.5-48-48S477.5-124,504-124z M257.3-141
	c8.3,10.7,21.1,17,34.7,17h60v16h-32c-17.7,0-32,14.3-32,32c0,11.4,6.1,22,16,27.7v4.3c0,4.4-3.6,8-8,8h-8v16h8
	c13.2,0,24-10.8,24-24h31.5c-4.4,35.1-36.4,59.9-71.5,55.5c-32-4-56-31.2-56-63.5v-72h1.4C238.2-124,250.1-130.4,257.3-141z M320-60
	c-8.8,0-16-7.2-16-16s7.2-16,16-16h42.8c-3.7,10.4-3.7,21.6,0,32H320z M314.9,62.5l-2.5-10.2l7.3-21.8c0.3-0.8,0.4-1.7,0.4-2.5v-6.7
	c8.8-3.9,16.9-9.3,23.8-16l7.8,4.9L314.9,62.5z M277.8,44L272,26.7v-0.3c10.6,2.1,21.4,2.1,32,0v0.3L298.2,44H277.8z M256,21.3V28
	c0,0.9,0.1,1.7,0.4,2.5l7.3,21.8l-2.5,10.2l-36.7-52.4l7.8-4.9C239.1,12,247.2,17.4,256,21.3z M276.2,84l-2.9-4.1l5-19.9h19.5
	l5,19.9l-2.9,4.1H276.2z M365.1,18.6l16.1,10c2.5,1.6,4.9,3.5,7,5.6l-43.9,39.5c-6.9,6.2-15.7,9.8-24.9,10.2L365.1,18.6z
	 M400.1,23.5c-3.1-3.2-6.6-6-10.4-8.4L354.2-7.1c7.5-11,12.1-23.7,13.4-36.9h4.7c8.5,9.6,20.5,15.3,33.3,15.9
	c-3,14.1-2.7,28.6,0.8,42.5l0.7,2.8L400.1,23.5z M423.1,15.4l-1.2-4.8c-3.2-12.7-3.1-25.9,0.1-38.6h39.8
	c9.6,8.5,21.6,13.9,34.3,15.5l-41.4,53.2L423.1,15.4z M462.6,56.5l45-57.8l3.8,19L466,68.7c-4.9,5.5-11.2,9.8-18.1,12.4L462.6,56.5z
	 M408-108h40.6c-11.5,19.8-11.5,44.2,0,64H408c-17.7,0-32-14.3-32-32S390.3-108,408-108z M280-188h24c26.5,0,48,21.5,48,48h-60
	c-15.5,0-28-12.5-28-28v-4C264-180.8,271.2-188,280-188z M240-180c4.4,0,8,3.6,8,8v9.4c0,12.5-10.1,22.6-22.6,22.6H224v-24
	C224-172.8,231.2-180,240-180z M176,62.6c0-13.8,7.1-26.6,18.8-33.9l16.1-10L256.6,84H240v16h77.6c13.8,0,27.2-5.1,37.5-14.4
	l61.3-55.1l29.2,23.4l-38.1,63.5c-17.4,28.8-48.6,46.5-82.3,46.6H256c-44.2,0-80-35.8-80-80V62.6z M400,260H176V137
	c17.8,26.8,47.8,43,80,43h144V260z M511.4,117.4c-17.4,28.8-48.6,46.5-82.3,46.6h-46.5c15.8-9.4,29-22.6,38.5-38.4l15.5-25.8
	c15.9-1.2,30.7-8.5,41.3-20.4l43-48.4l28.6,22.9L511.4,117.4z M579.5,10.9l-21.1,29.6l-31.1-24.9L521.8-12H576
	c4.9,0,9.7-0.6,14.4-1.7C588.5-4.8,584.8,3.5,579.5,10.9z M576-28c-26.5,0-48-21.5-48-48s21.5-48,48-48s48,21.5,48,48
	C624-49.5,602.5-28,576-28z"/>
<rect x="560" y="-68" class="st0" width="16" height="16"/>
<rect x="592" y="-68" class="st0" width="16" height="16"/>
</svg>
