<?xml version="1.0" encoding="utf-8"?>
<!-- Generator: Adobe Illustrator 19.0.0, SVG Export Plug-In . SVG Version: 6.00 Build 0)  -->
<svg version="1.1" id="Capa_1" xmlns="http://www.w3.org/2000/svg" xmlns:xlink="http://www.w3.org/1999/xlink" x="0px" y="0px"
	 viewBox="222 32.6 667.3 9.4" style="enable-background:new 222 32.6 667.3 9.4;" xml:space="preserve">
<style type="text/css">
	.st0{fill:#142850;}
</style>
<g>
	<path class="st0" d="M292.5,41.7c-0.2-3-0.2-5.8,0-8.9c198.9,0,397.7,0,596.8,0c0.7,2.8,0.3,5.7,0.2,8.9
		C690.5,41.7,491.7,41.7,292.5,41.7z"/>
	<path class="st0" d="M222,32.8c4.1,0,7.8,0,11.8,0c0.6,3,0.3,5.9,0.2,9c-4,0.4-7.9,0-12,0.2C222,38.8,222,36,222,32.8z"/>
	<path class="st0" d="M244.4,42c0-3.4,0-6.1,0-9.3c3.9-0.3,7.8-0.1,11.9-0.1c0.7,3.1,0.4,6,0.3,9.1C252.5,42.3,248.6,41.8,244.4,42z
		"/>
	<path class="st0" d="M280.5,41.8c-4.2,0-8,0-12,0c0-3,0-5.8,0-8.9c3.9,0,7.8,0,11.9,0C281,35.7,280.7,38.6,280.5,41.8z"/>
</g>
</svg>
