<?xml version="1.0" encoding="utf-8"?>
<!-- Generator: Adobe Illustrator 19.0.0, SVG Export Plug-In . SVG Version: 6.00 Build 0)  -->
<svg version="1.1" id="Capa_1" xmlns="http://www.w3.org/2000/svg" xmlns:xlink="http://www.w3.org/1999/xlink" x="0px" y="0px"
	 viewBox="0 0 667.3 9.4" style="enable-background:new 0 0 667.3 9.4;" xml:space="preserve">
<style type="text/css">
	.st0{fill:#1498A5;}
	.st1{fill:#1F9DA9;}
</style>
<g>
	<path class="st0" d="M70.5,9.1c-0.2-3-0.2-5.8,0-8.9c198.9,0,397.7,0,596.8,0c0.7,2.8,0.3,5.7,0.2,8.9
		C468.5,9.1,269.7,9.1,70.5,9.1z"/>
	<path class="st1" d="M0,0.2c4.1,0,7.8,0,11.8,0c0.6,3,0.3,5.9,0.2,9C8,9.6,4.1,9.2,0,9.4C0,6.2,0,3.4,0,0.2z"/>
	<path class="st1" d="M22.4,9.4c0-3.4,0-6.1,0-9.3c3.9-0.3,7.8-0.1,11.9-0.1c0.7,3.1,0.4,6,0.3,9.1C30.5,9.7,26.6,9.2,22.4,9.4z"/>
	<path class="st1" d="M58.5,9.2c-4.2,0-8,0-12,0c0-3,0-5.8,0-8.9c3.9,0,7.8,0,11.9,0C59,3.1,58.7,6,58.5,9.2z"/>
</g>
</svg>
