<?xml version="1.0" encoding="utf-8"?>
<!-- Generator: Adobe Illustrator 19.0.0, SVG Export Plug-In . SVG Version: 6.00 Build 0)  -->
<svg version="1.1" id="Capa_1" xmlns="http://www.w3.org/2000/svg" xmlns:xlink="http://www.w3.org/1999/xlink" x="0px" y="0px"
	 viewBox="175 -19 574 111" style="enable-background:new 175 -19 574 111;" xml:space="preserve">
<style type="text/css">
	.st0{fill:#142850;}
</style>
<g>
	<path class="st0" d="M567.8,74.8c4.3-12,8.3-23.4,12.4-34.8c3.7-10.4,7.3-20.8,11-31.1c1.8-5.1,5-7.3,8-5.2
		c3.6,2.5,3.3,6.2,1.9,10.3c-7.3,20.3-14.7,40.6-21.8,61c-2.1,6.1-5.2,10.1-11,9.9c-5.7-0.2-9.6-4.5-11.6-10
		c-7.2-19.3-13.8-38.9-20.6-58.3c-0.2-0.7-0.5-1.3-0.9-2.2c-3,1.2-3.2,4.5-4,7c-5,16.9-10.5,33.6-16.8,49.9
		c-4.5,11.5-7.7,13.8-18.3,13.4C507.2,61,514.3,35,523.9,10.3c2.3-5.9,8.8-9.7,13-6.6c3.4,2.5,7.3,4.8,9.1,10
		C552.9,33.8,560.1,53.6,567.8,74.8z"/>
	<path class="st0" d="M340.6,72c4.4-12.2,8.6-23.7,12.7-35.2c2.7-7.4,5.4-14.8,7.9-22.4c1.7-5,5.2-8,8.6-10.7
		c4.4-3.4,11.5,0.4,13.9,7c6.9,19.2,13.6,38.5,20.4,57.8c2,5.6,3.4,11.5,8.2,15.6c-10.6,1.5-15.3-2-19.3-13.5
		c-6-17.3-11.9-34.7-17.9-52c-0.6-1.8-0.9-3.8-2.4-5.1c-6.9,19.7-14,39.3-20.7,59.1c-1.8,5.4-5.4,8.3-8.9,10.9
		c-4.7,3.5-11.3,0-13.6-6.3c-4.6-12.7-8.8-25.5-13.7-38.1c-3.3-8.5-6.4-17-9.1-25.7c-1.6-5.2-0.8-9.1,2.6-10.4
		c4.2-1.6,6,1.7,7.4,5.6c6.6,18.7,13.2,37.5,19.8,56.2C337.3,67.1,337.9,69.7,340.6,72z M339.3,71.6c0.1,0.2,0.2,0.3,0.4,0.4
		c0.1-0.3,0.3-0.5,0.3-0.8c0-0.1-0.2-0.3-0.3-0.4C339.5,71.1,339.4,71.3,339.3,71.6z"/>
	<path class="st0" d="M633.4,59.4c-5.8,0-11.7,0-17.5,0c-3.6,0-6.8,0.8-7,6.1c-0.3,4.8,2.5,9.4,6.5,9.5c9.3,0.3,18.6,0.3,28,0.1
		c3.5-0.1,5.7-3,6.6-7c0.6-2.7,1.6-5,4.4-4.3c3.1,0.8,2.9,3.9,2.6,6.7c-0.7,6.6-5.9,12.7-11.7,13.3c-10.5,1-21,1.1-31.4-0.2
		c-5.8-0.7-10.2-4.9-11.1-11.8c-1.5-10.9-1.9-22,0.2-32.9c1.7-9,5.8-12.6,13.4-12.8c8.7-0.2,17.3-0.2,26,0.1
		c9.6,0.3,14.8,6.7,14.8,17.9c0.1,17.5,1.5,15-12.7,15.2C640.7,59.4,637.1,59.4,633.4,59.4L633.4,59.4z M629.1,50.8L629.1,50.8
		c4.7,0,9.3,0,14,0c3.4,0,6.4-0.8,7.1-5.6c0.7-4.7-1.7-9.8-5.6-10.3c-10.1-1.3-20.3-1.3-30.3,0.4c-4.2,0.7-5.6,5.3-5.1,10
		c0.5,4.4,3.2,5.5,6.6,5.4C620.1,50.7,624.6,50.8,629.1,50.8z"/>
	<path class="st0" d="M423.2,78.1c-1.3-6.4,0.7-12,2.8-17.8c5.6-15.2,10.9-30.5,16.4-45.7c3-8.2,8.2-12.1,13.7-11.3
		c4.3,0.6,6.8,3.6,8.4,8.2c6.9,19.7,13.8,39.3,20.7,58.9c1.6,4.7,2.9,9.5,7.3,12.1c-8.4,4.5-13.5,2.4-16.7-6.8
		c-7.3-20.5-14.5-41.1-21.9-62c-7,19.9-14.1,39.3-20.7,58.8c-1.8,5.3-4,8.4-9.2,6.5l0.1,0.2c0.2-1.1,0.3-2.2-1.1-1.3L423.2,78.1z"/>
	<path class="st0" d="M669.1,27.3c12.4-2,24-1.4,35.6-0.9c6.6,0.3,11.5,5.7,12.4,13.6c1,9.4,1,18.9,0.1,28.3
		c-0.9,10.3-5.4,14.7-14.2,15.4c-8.8,0.7-17.6,0.7-26.4,0c-8.1-0.7-14.2-7.2-14.3-16.9c-0.3-18.3-0.1-36.7-0.1-55
		c0-2.8,0.5-5.4,3.3-5.6C668.8,6,669,9.1,669,12C669.1,16.9,669.1,21.8,669.1,27.3z M689.9,75.3c0,0.1,0,0.1,0,0.2
		c4.2,0,8.3,0.2,12.5,0c5.3-0.3,8.3-3.8,8.5-10c0.2-6.9,0.2-13.8,0-20.7c-0.1-5.3-2.3-9.6-6.8-10.1c-9.4-0.9-18.9-1.5-28.3,0.3
		c-4.5,0.9-6.5,4.4-6.6,9.5c-0.1,6.9-0.1,13.8,0,20.7c0.1,6.1,2.7,9.6,7.8,10C681.2,75.6,685.6,75.3,689.9,75.3z"/>
	<path class="st0" d="M216.7,25.7c4.7,0,9.3-0.1,14,0c5.7,0.2,9,4.5,11.3,10.1c1.1,2.5,0.7,4.7-1.1,6.3c-1.9,1.6-3.7,0.5-4.6-1.6
		c-2.9-6.6-7.7-7.1-13.2-6.8c-5.7,0.3-11.3,0-17,0.1c-5.5,0.1-7.9,2.3-8,7.2c-0.1,4.6,2.3,6.9,8,7.1c7.5,0.3,15,0.1,22.5,0.4
		c10.5,0.4,16.6,8.8,15.5,21c-0.8,8.6-5.5,13.8-12.8,14.4c-9.2,0.7-18.3,1-27.4-0.1c-5.6-0.7-9.6-4.2-12-10.2
		c-1-2.6-1.2-5.3,1.2-6.8c2.4-1.6,4.1,0.2,5.1,2.8c1.8,4.7,4.9,6.5,9.2,6.3c7-0.3,14,0,21-0.2c5.9-0.1,8.9-3.4,8.8-9.3
		c-0.1-6.3-3.2-9.6-9.1-9.8c-7.8-0.2-15.7,0-23.5-0.4c-9-0.5-13.6-6.1-13.4-15.8c0.2-8.4,4.1-13.7,11.1-14.7
		c4.8-0.6,9.6-0.6,14.5-0.8C216.7,25.2,216.7,25.4,216.7,25.7z"/>
	<path class="st0" d="M254.2,50.8c0-6.1,0-12.2,0-18.4c0-2.6,0.6-4.8,3.3-4.9c2.9-0.1,3.6,2.2,3.6,5.1c0,10.7,0,21.3,0,32
		c0,8.8,2.9,12.3,10.2,12.3c5.7,0,11.3,0.1,17-0.3c6.5-0.5,8.6-3.2,8.6-10.8c0.1-10.3,0-20.5,0-30.8c0-3.1-0.6-7.2,3.2-7.3
		c3.6-0.1,3.8,3.7,3.8,6.9c-0.1,11,0.1,22.1-0.4,33.1c-0.5,11.6-5.4,17-15,17.2c-6.7,0.1-13.3,0.2-20-0.1c-8.6-0.3-13.6-6.1-14-16.3
		c-0.2-5.9,0-11.8,0-17.8C254.2,50.8,254.2,50.8,254.2,50.8z"/>
	<path class="st0" d="M424,79c0,1.8,1.8,1.5,2.3,2.8c-5.7,4.8-12.5,3.2-15.2-4.1c-7.9-21.7-15.6-43.5-23.4-65.3
		c-1.3-3.8-1.1-7.1,2.3-9c3.7-2,6.1,0.1,7.5,4.1c7.8,23,16.7,45.6,23.8,68.9c0.4,1.2,1.1,1.3,1.8,1.6l-0.2-0.2
		c0,0.9,0.3,1.4,1.1,1.3L424,79z"/>
	<path class="st0" d="M521.1,9c-0.4,1.4-0.6,3-1.2,4.4c-7.2,20.3-14.4,40.6-21.6,60.9c-1.2,3.4-2.7,6.7-6.6,5
		c-2.7-1.2-4.9-8-3.4-11.1c6.1-12,9.4-25.5,14.2-38.2c2.9-7.5,5.3-15.3,8.1-22.9c1.2-3.2,3.1-5.1,6.3-4.2
		C519.5,3.6,520.4,6.1,521.1,9z"/>
	<path class="st0" d="M420.4,64.5c-4-8.6-6.6-16.1-2.2-25.5c4.4-9.4,7.3-19.8,10.8-29.8c1.5-4.4,3.9-7.5,7.9-5.3
		c3.7,2,3.6,6,2.1,10.1c-5.5,15.2-10.9,30.4-16.4,45.6C422.1,61.1,421.3,62.5,420.4,64.5z"/>
	<path class="st0" d="M487.2,65c-5.6-16.4-10.9-31.8-16.2-47.2c-0.5-1.5-0.9-3-1.5-4.4c-1.6-4.2-1.3-7.9,2.6-9.7
		c3.7-1.7,5.9,0.7,7.2,4.8c2.4,7.5,5.1,15,7.4,22.5c1,3.4,2.7,6.5,3.5,10.1C492.8,53.1,493,53,487.2,65z"/>
	<path class="st0" d="M714.7,11c0.1-9.3,5.9-15.9,13.7-15.8c7.3,0.1,12.9,7.2,12.9,16.1c-0.1,8.9-5.9,15.5-13.4,15.4
		C720.2,26.6,714.6,19.9,714.7,11z M738.4,11c0-6.8-4.5-12.2-10.4-12.3c-5.8-0.2-10.6,5.4-10.5,12.3c0.1,6.8,4.8,12.4,10.5,12.4
		C733.5,23.4,738.4,17.7,738.4,11z"/>
	<path class="st0" d="M734.3,18.2c-5.3,2.9-4.2-5.6-7.8-5.2c-1.7,1.5,0.7,6.2-2.6,5.8c-3.5-0.5-1.5-4.4-1.7-6.8
		c-0.3-2.9-0.1-5.9-0.1-9c2.5-1.2,5-0.7,7.4-0.5c2.3,0.2,4.3,2.7,3.3,4.7C730.5,11.6,733.4,14.4,734.3,18.2z"/>
</g>
</svg>
